<?xml version="1.0" standalone="no"?>
<!DOCTYPE svg PUBLIC "-//W3C//DTD SVG 1.1//EN" "http://www.w3.org/Graphics/SVG/1.1/DTD/svg11.dtd" >
<svg xmlns="http://www.w3.org/2000/svg">
<metadata></metadata>
<defs>
<font id="pf_dindisplay_problack" horiz-adv-x="1126" >
<font-face units-per-em="2048" ascent="1536" descent="-512" />
<missing-glyph horiz-adv-x="534" />
<glyph unicode="&#xfb01;" horiz-adv-x="1159" d="M41 776v240h115v129q0 76 24.5 132t66.5 93t99 54.5t123 17.5h176v-246h-119q-80 0 -80 -84v-96h594v-1016h-303v776h-291v-776h-290v776h-115zM723 1276q0 70 48 118t118 48t119 -48t49 -118q0 -72 -49.5 -120t-118.5 -48q-70 0 -118 48t-48 120z" />
<glyph unicode="&#xfb02;" horiz-adv-x="1220" d="M61 776v240h107v145q0 76 28.5 138.5t81 106.5t123 68.5t154.5 24.5q76 0 196.5 -12t299.5 -60v-1075q0 -31 3 -49t16 -29.5t39 -16.5t69 -7l6 -250q-35 -6 -71 -8t-64 -2q-102 0 -162 21.5t-89.5 61.5t-37.5 95t-8 123v930q-41 10 -80 15t-72 5q-51 0 -96 -26.5 t-45 -94.5v-104h211v-240h-211v-776h-291v776h-107z" />
<glyph unicode="&#xfb03;" horiz-adv-x="1740" d="M41 776v240h115v90q0 76 24.5 132t66.5 93t99 54.5t123 17.5h176v-246h-119q-80 0 -80 -84v-57h291v129q0 76 24.5 132t66.5 93t99.5 54.5t123.5 17.5h176v-246h-119q-80 0 -80 -84v-96h594v-1016h-303v776h-291v-776h-291v776h-291v-776h-290v776h-115zM1305 1274 q0 70 48 118t117 48q70 0 119 -48.5t49 -117.5q0 -72 -49 -120t-119 -48t-117.5 48t-47.5 120z" />
<glyph unicode="&#xfb04;" horiz-adv-x="1789" d="M41 776v240h115v119q0 76 24.5 132t66.5 93t99 54.5t123 17.5h176v-246h-119q-80 0 -80 -84v-86h291v141q0 76 27 139.5t78 108.5t124.5 69.5t166.5 24.5q76 0 203.5 -14.5t283.5 -61.5v-1071q0 -31 3 -49t16.5 -29.5t39 -16.5t68.5 -7l6 -250q-35 -6 -70.5 -8t-64.5 -2 q-102 0 -161.5 21.5t-89.5 61.5t-38 95t-8 123v930q-39 8 -76 13t-69 5q-66 0 -107 -29.5t-41 -107.5v-86h211v-240h-211v-776h-291v776h-291v-776h-290v776h-115z" />
<glyph horiz-adv-x="2048" />
<glyph horiz-adv-x="2048" />
<glyph unicode="&#xd;" horiz-adv-x="2048" />
<glyph unicode=" "  horiz-adv-x="534" />
<glyph unicode="&#x09;" horiz-adv-x="534" />
<glyph unicode="&#xa0;" horiz-adv-x="534" />
<glyph unicode="!" horiz-adv-x="573" d="M104 172q0 39 14.5 71.5t39 57.5t57.5 38t70 13t69.5 -13t58 -38t40 -57.5t14.5 -71.5q0 -76 -48 -131t-130 -55q-78 0 -131.5 54t-53.5 132zM139 1425h293l-14 -983h-262z" />
<glyph unicode="&#x22;" horiz-adv-x="753" d="M104 961v464h242v-464h-242zM416 961v464h241v-464h-241z" />
<glyph unicode="#" horiz-adv-x="1155" d="M45 410v219h195l24 170h-166v221h197l57 405h246l-55 -405h143l57 405h246l-55 -405h172v-221h-203l-24 -170h174v-219h-205l-55 -410h-252l57 410h-139l-58 -410h-251l57 410h-162zM487 629h144l24 170h-143z" />
<glyph unicode="$" d="M39 219l172 230q98 -78 181 -117t175 -39q55 0 94 12t64 31.5t37 44.5t12 47q0 43 -36 70.5t-86 47t-105 31t-92 19.5q-53 12 -113.5 34.5t-112 66.5t-85 113t-33.5 171q0 160 98 268.5t262 141.5v192h199v-182q104 -10 196 -49t203 -119l-168 -244q-88 72 -161.5 98.5 t-149.5 26.5q-72 0 -121 -33.5t-49 -93.5q0 -41 39 -67.5t92 -45t107.5 -28.5t82.5 -17q51 -12 111.5 -38.5t112 -72.5t86 -116t34.5 -168q0 -86 -31.5 -157.5t-87 -124t-131 -86t-165.5 -46.5v-237h-199v235q-119 10 -222.5 56.5t-209.5 144.5z" />
<glyph unicode="%" horiz-adv-x="1802" d="M111 795v383q0 59 28.5 104t72.5 74.5t97 45t103 15.5q49 0 102 -15.5t97 -45t72 -74.5t28 -104v-383q0 -61 -28 -105.5t-72 -73t-97 -42t-102 -13.5t-102.5 13.5t-97.5 42t-72.5 72.5t-28.5 106zM328 827q0 -41 25.5 -59t58.5 -18t58.5 18t25.5 59v316q0 41 -26 61.5 t-58 20.5q-33 0 -58.5 -20.5t-25.5 -61.5v-316zM369 -35l870 1495h211l-872 -1495h-209zM1090 227v383q0 59 28.5 104.5t72.5 75t97 45t103 15.5q49 0 102 -15.5t97 -45t72 -74.5t28 -105v-383q0 -61 -28 -105t-72 -73t-97 -42t-102 -13t-102.5 13t-97.5 42t-72.5 73 t-28.5 105zM1307 260q0 -41 25.5 -59.5t58.5 -18.5t58.5 18.5t25.5 59.5v315q0 41 -26 61.5t-58 20.5q-33 0 -58.5 -20.5t-25.5 -61.5v-315z" />
<glyph unicode="&#x26;" horiz-adv-x="1675" d="M84 1049q0 123 49 236.5t141.5 200.5t223.5 139t293 52q180 0 321 -60.5t237.5 -164.5t146.5 -243.5t50 -295.5q0 -176 -67.5 -348t-196.5 -309q66 -59 141.5 -105.5t161.5 -87.5l-115 -206q-45 14 -98 41.5t-105.5 61.5t-100.5 72t-83 74q-27 -25 -67.5 -48t-87.5 -41.5 t-99.5 -29t-103.5 -10.5q-94 0 -177 29t-145.5 82t-98.5 131t-36 174q0 70 23.5 130.5t62.5 112.5t90.5 95t104.5 76q-29 47 -48.5 99t-19.5 120q0 70 21.5 129t63.5 102t101.5 68t133.5 25q70 0 129 -22.5t103 -63.5t69.5 -96.5t25.5 -118.5q0 -59 -19 -109.5t-51 -90.5 t-72 -73t-81 -59q51 -74 104.5 -147.5t112.5 -145.5q92 104 137.5 233t45.5 254q0 106 -35 202.5t-99.5 168.5t-158.5 115t-213 43q-109 0 -195 -31t-146.5 -83t-93 -121.5t-32.5 -145.5q0 -57 13 -119.5t67 -146.5l-205 -129q-72 104 -97.5 200.5t-25.5 184.5zM516 395 q0 -92 52.5 -139t136.5 -47q102 -1 223 67q-27 31 -59.5 73t-65.5 88t-61.5 90t-47.5 77q-72 -41 -125 -92t-53 -117zM739 1034q0 -25 12.5 -52.5t30.5 -55.5q47 27 72 55.5t25 67.5q0 27 -21.5 47t-56.5 20q-29 0 -45.5 -23.5t-16.5 -58.5z" />
<glyph unicode="'" horiz-adv-x="538" d="M150 961v464h241v-464h-241z" />
<glyph unicode="(" horiz-adv-x="763" d="M129 625q0 131 33 253.5t89 237.5t131 219.5t161 196.5l176 -113q-145 -193 -213 -398.5t-68 -385.5q0 -197 73 -404.5t210 -392.5l-170 -129q-86 94 -163 200.5t-134 223.5t-91 241t-34 251z" />
<glyph unicode=")" horiz-adv-x="763" d="M106 -162q139 184 211 392t72 405q0 180 -66.5 386t-213.5 398l176 113q86 -92 161.5 -196.5t131 -219.5t88 -237.5t32.5 -253.5q0 -127 -32.5 -251t-90 -241t-134 -223.5t-162.5 -200.5z" />
<glyph unicode="*" horiz-adv-x="950" d="M104 1063l66 209l227 -94l-26 243h231l-29 -243l226 94l65 -209l-237 -53l164 -183l-187 -133l-121 211l-129 -211l-184 133l168 183z" />
<glyph unicode="+" d="M39 492v237h397v375h254v-375h397v-237h-397v-381h-254v381h-397z" />
<glyph unicode="," horiz-adv-x="645" d="M143 -201q55 41 90 95.5t43 99.5q-49 10 -86.5 53t-37.5 113q0 39 15 71.5t40.5 57t59.5 38t69 13.5q92 0 146.5 -63.5t54.5 -167.5q0 -66 -19.5 -130.5t-56.5 -124t-91.5 -110.5t-121.5 -88z" />
<glyph unicode="-" horiz-adv-x="901" d="M96 393v269h709v-269h-709z" />
<glyph unicode="." horiz-adv-x="661" d="M152 172q0 39 14 71.5t38.5 57.5t57.5 38t70 13t69.5 -13t58 -38t40 -57.5t14.5 -71.5q0 -76 -48 -131t-130 -55q-78 0 -131 54t-53 132z" />
<glyph unicode="/" horiz-adv-x="753" d="M-33 -86l518 1571h246l-520 -1571h-244z" />
<glyph unicode="0" d="M115 371v669q0 100 42 173t108.5 120t146.5 69.5t155 22.5q76 0 156 -22.5t145.5 -69.5t107.5 -119.5t42 -173.5v-669q0 -100 -42 -173t-107.5 -119t-145.5 -67.5t-156 -21.5t-155.5 21.5t-146 67.5t-108.5 118.5t-42 173.5zM418 428q0 -82 47 -115.5t102 -33.5 t101.5 33.5t46.5 115.5v555q0 82 -46 114.5t-102 32.5q-55 0 -102 -32.5t-47 -114.5v-555z" />
<glyph unicode="1" d="M188 1130l316 281h272v-1411h-301v1014l-117 -101z" />
<glyph unicode="2" d="M119 0v197q0 88 24.5 162.5t64.5 138t93 117t109 96.5q55 43 109 79.5t97 73.5t69 74t26 78q0 49 -39 84t-125 35q-63 0 -132 -22.5t-128 -76.5l-158 244q84 74 200.5 109.5t241.5 35.5q82 0 164 -19.5t146.5 -67.5t105.5 -126.5t41 -195.5q0 -72 -26.5 -134.5 t-67.5 -114.5t-90 -97t-94 -82q-35 -29 -85.5 -65t-98.5 -75.5t-86 -85t-48 -92.5h588v-270h-901z" />
<glyph unicode="3" d="M86 131l158 242q59 -51 133 -75t137 -24q82 0 140.5 40t58.5 112q0 66 -42 112t-116 46h-174v256h166q66 0 113 44t47 109q0 39 -15.5 65.5t-40 44t-54.5 25t-56 7.5q-63 0 -130 -22.5t-126 -76.5l-158 240q84 74 205 112.5t246 38.5q88 0 167.5 -23.5t141 -72.5 t97.5 -125t36 -180q0 -102 -49 -178t-125 -119q86 -41 130 -120t44 -179q0 -119 -43 -203t-111.5 -138t-156.5 -78.5t-179 -24.5q-123 0 -241.5 35.5t-202.5 109.5z" />
<glyph unicode="4" d="M78 197v239l444 975h322l-430 -946h241v393h306v-393h112v-268h-112v-197h-306v197h-577z" />
<glyph unicode="5" d="M139 135l158 242q68 -59 133.5 -78.5t128.5 -19.5q31 0 60.5 9t54 26.5t40 45t15.5 64.5v145q0 113 -100 113q-27 0 -56.5 -10t-57.5 -23.5t-49.5 -27t-31.5 -21.5l-270 107v704h821v-270h-518v-215q47 27 105.5 43t103.5 16q86 0 152.5 -29.5t111.5 -81t68.5 -122 t23.5 -152.5v-215q0 -100 -39 -174t-103.5 -123t-147.5 -73.5t-173 -24.5q-125 0 -235.5 35.5t-194.5 109.5z" />
<glyph unicode="6" d="M123 385v643q0 100 39 175t103.5 124t147.5 73.5t173 24.5q125 0 235.5 -35.5t194.5 -109.5l-158 -244q-68 59 -133.5 79t-128.5 20q-23 0 -52.5 -8.5t-56 -27t-44 -46t-17.5 -64.5v-112q88 41 138 53t100 12q90 0 157.5 -30.5t112.5 -83t67.5 -123t22.5 -152.5v-168 q0 -102 -40 -177t-103.5 -123t-143.5 -71.5t-162 -23.5q-86 0 -167.5 23.5t-145 72.5t-101.5 123t-38 176zM426 430q0 -84 47 -117.5t102 -33.5q53 0 99.5 35.5t46.5 115.5v102q0 72 -34 97.5t-69 25.5q-41 0 -87 -14t-105 -47v-164z" />
<glyph unicode="7" d="M127 938v473h899v-250l-487 -1161h-324l467 1141h-272v-203h-283z" />
<glyph unicode="8" d="M104 418q0 51 15.5 100t41 91t57.5 74t63 50q-63 35 -99.5 101.5t-36.5 173.5q0 106 41 185t105.5 130t143.5 76.5t153 25.5q80 0 159.5 -25.5t143 -77.5t102.5 -131t39 -187q0 -100 -43 -170t-102 -101q72 -39 122 -121t50 -190q0 -113 -44 -195t-114 -134t-154.5 -77.5 t-164.5 -25.5t-165 23.5t-154.5 74.5t-114 133t-44.5 197zM424 422q0 -37 14.5 -64.5t37 -46t50 -28t56.5 -9.5t56.5 9.5t50 29t36.5 48t14 67.5q0 31 -14 57.5t-36.5 46t-50 30.5t-56.5 11q-57 0 -107.5 -39.5t-50.5 -111.5zM444 997q0 -80 45.5 -112.5t98.5 -32.5t96 34.5 t43 106.5q0 63 -44 101.5t-95 38.5q-27 0 -52.5 -10.5t-46 -28t-33 -42t-12.5 -55.5z" />
<glyph unicode="9" d="M125 881v135q0 102 38 179t100.5 128t143 76.5t168.5 25.5q98 0 181.5 -27.5t142.5 -80.5t93 -132t34 -181v-619q0 -100 -39 -174t-103.5 -123t-147.5 -73.5t-173 -24.5q-123 0 -234.5 35.5t-195.5 109.5l158 242q70 -59 135.5 -78.5t126.5 -19.5q25 0 53.5 9t55 26.5 t44 45t17.5 64.5v131q-43 -20 -77 -32.5t-60.5 -19.5t-51 -9t-49.5 -2q-82 0 -148.5 30.5t-113.5 82.5t-72.5 123t-25.5 153zM428 901q0 -35 9 -58.5t24.5 -37.5t34 -20.5t34.5 -6.5q41 0 87.5 14.5t105.5 47.5v145q0 43 -13.5 71.5t-34 46t-47 26t-53.5 8.5t-53 -9.5 t-46.5 -28t-34 -47t-13.5 -67.5v-84z" />
<glyph unicode=":" horiz-adv-x="712" d="M170 172q0 39 14.5 71.5t39 57.5t57 38t69.5 13t70 -13t58.5 -38t39.5 -57.5t14 -71.5q0 -76 -48 -131t-130 -55q-78 0 -131 54t-53 132zM170 733q0 39 14.5 73t39 58.5t57 37.5t69.5 13t70 -13t58.5 -37.5t39.5 -58.5t14 -73q0 -37 -12 -69.5t-35.5 -58t-56.5 -41 t-74 -15.5q-78 0 -131 53t-53 131z" />
<glyph unicode=";" horiz-adv-x="645" d="M119 -201q55 41 90 95.5t43 99.5q-49 10 -87 53t-38 113q0 39 15.5 71.5t41 57t59 38t68.5 13.5q92 0 146.5 -63.5t54.5 -167.5q0 -66 -19.5 -130.5t-56.5 -124t-91 -110.5t-122 -88zM147 733q0 39 14.5 73t39 58.5t57.5 37.5t70 13t69.5 -13t58 -37.5t40 -58.5t14.5 -73 q0 -37 -12.5 -69.5t-36 -58t-56 -41t-73.5 -15.5q-78 0 -131.5 53t-53.5 131z" />
<glyph unicode="&#x3c;" d="M39 496v229l1046 457v-269l-723 -305l723 -305v-268z" />
<glyph unicode="=" d="M37 262v227h1053v-227h-1053zM37 731v227h1053v-227h-1053z" />
<glyph unicode="&#x3e;" d="M39 35v268l723 305l-723 305v269l1046 -457v-229z" />
<glyph unicode="?" horiz-adv-x="1030" d="M63 1284q94 78 211 115t240 37q102 0 186 -29t142.5 -78t90.5 -116.5t32 -145.5q0 -72 -20.5 -127t-50.5 -101t-65.5 -87t-65.5 -84t-50.5 -92.5t-20.5 -110.5v-33h-309v35q0 59 8 104t28.5 90.5t52.5 94.5t81 114q16 23 34.5 63t18.5 83q0 49 -35.5 86t-124.5 37 q-59 0 -117.5 -23.5t-117.5 -77.5zM354 172q0 39 14.5 71.5t39 57.5t57.5 38t70 13t69.5 -13t58 -38t40 -57.5t14.5 -71.5q0 -76 -48 -131t-130 -55q-78 0 -131.5 54t-53.5 132z" />
<glyph unicode="@" horiz-adv-x="1806" d="M109 737q0 166 61 307.5t172 245t266.5 162.5t343.5 59q193 0 336.5 -55t238.5 -151.5t142 -225.5t47 -276q0 -102 -31.5 -192.5t-89 -158t-137.5 -106.5t-174 -39q-29 0 -61.5 3t-65.5 12.5t-62.5 28t-50.5 48.5q-66 -45 -127 -62.5t-108 -17.5q-72 0 -121 20.5 t-79.5 55.5t-45 79t-14.5 93q0 70 32.5 117t81 75.5t103.5 41t98 12.5h156v16q0 41 -28.5 69t-90.5 28q-41 0 -92 -12.5t-109 -57.5l-110 172q88 70 171 90.5t159 20.5q154 0 247 -81t93 -247v-233q0 -20 9 -31.5t20 -17t22.5 -6.5t15.5 -1q20 0 49 13.5t54.5 44t43 84 t17.5 133.5q0 106 -34 198t-100.5 160t-168 106.5t-236.5 38.5q-145 0 -259.5 -45t-194.5 -121.5t-123 -178t-43 -216.5q0 -117 41 -219t114.5 -179t177 -121t230.5 -44q53 0 109.5 7t148.5 42l66 -190q-35 -18 -80 -29.5t-92.5 -20t-92.5 -11.5t-77 -3q-176 0 -318.5 58.5 t-243 162t-153.5 242.5t-53 303zM795 586q0 -18 18 -34.5t57 -16.5q57 0 93 14t59 29v65h-145q-31 0 -56.5 -11t-25.5 -46z" />
<glyph unicode="A" horiz-adv-x="1349" d="M8 0l498 1411h336l489 -1411h-348l-86 279h-455l-84 -279h-350zM524 545h291l-29 96l-112 389h-8l-113 -389z" />
<glyph unicode="B" horiz-adv-x="1308" d="M123 0v1411h659q111 0 189 -31.5t128 -85t72.5 -123t22.5 -147.5q0 -37 -11.5 -78t-33 -80t-54 -71.5t-75.5 -53.5q51 -25 89 -62.5t62.5 -81.5t37 -90t12.5 -85q0 -90 -27 -167t-79 -134.5t-129 -89t-177 -31.5h-686zM449 289h260q80 0 120.5 39.5t40.5 105.5t-37.5 111 t-123.5 45h-260v-301zM449 866h245q86 0 124 34t38 87q0 59 -35 97t-127 38h-245v-256z" />
<glyph unicode="C" horiz-adv-x="1181" d="M123 436v533q0 117 48 201.5t126 141t175 84t198 27.5q125 0 245.5 -34.5t204.5 -108.5l-157 -252q-70 59 -142.5 78.5t-140.5 19.5q-41 0 -82 -12t-73.5 -37.5t-54 -67.5t-21.5 -104v-399q0 -61 21.5 -103.5t55 -68t74.5 -37.5t82 -12q66 0 135.5 19.5t147.5 78.5 l153 -254q-86 -72 -201.5 -107.5t-240.5 -35.5q-98 0 -197.5 26.5t-178.5 82t-128 140t-49 201.5z" />
<glyph unicode="D" horiz-adv-x="1273" d="M123 0v1411h536q109 0 202 -26.5t163 -82t108.5 -139.5t38.5 -200v-512q0 -117 -44 -202t-116.5 -140.5t-164.5 -82t-187 -26.5h-536zM449 287h169q39 0 80 12t73 37.5t52.5 69t20.5 104.5v389q0 61 -20.5 103t-52.5 68t-73 38t-80 12h-169v-833z" />
<glyph unicode="E" horiz-adv-x="1200" d="M123 0v1411h985v-291h-659v-264h563v-289h-563v-278h659v-289h-985z" />
<glyph unicode="F" horiz-adv-x="1128" d="M123 0v1411h985v-291h-659v-278h563v-289h-563v-553h-326z" />
<glyph unicode="G" horiz-adv-x="1265" d="M123 436v527q0 117 48 202.5t127 144t177 87t201 28.5q125 0 251 -35.5t210 -109.5l-158 -252q-70 59 -148.5 78.5t-146.5 19.5q-41 0 -82 -12t-75.5 -37.5t-56 -67.5t-21.5 -104v-399q0 -61 20 -103.5t53 -68t73 -37.5t81 -12q37 0 77 10t74 39v190h-194v275h520v-604 q-47 -59 -107.5 -99.5t-124 -65t-127 -34.5t-118.5 -10q-96 0 -194.5 26.5t-178.5 82t-130 140t-50 201.5z" />
<glyph unicode="H" horiz-adv-x="1351" d="M123 0v1411h326v-547h450v547h330v-1411h-330v571h-450v-571h-326z" />
<glyph unicode="I" horiz-adv-x="653" d="M164 0v1411h325v-1411h-325z" />
<glyph unicode="J" horiz-adv-x="1101" d="M0 129l152 250q72 -55 137 -75.5t127 -20.5q49 0 90 11t70.5 37.5t47 72t17.5 112.5v895h328v-975q0 -117 -44 -200.5t-116 -139t-164 -82t-188 -26.5q-129 0 -251 34.5t-206 106.5z" />
<glyph unicode="K" horiz-adv-x="1325" d="M123 0v1411h326v-551l466 551h385l-475 -573l500 -838h-381l-334 582l-161 -187v-395h-326z" />
<glyph unicode="L" horiz-adv-x="1124" d="M123 0v1411h321v-1120h670v-291h-991z" />
<glyph unicode="M" horiz-adv-x="1650" d="M123 0v1411h299l233 -459l166 -336h13l172 349l223 446h299v-1411h-326v657h-6l-133 -254l-123 -215h-231l-125 224l-127 243h-8v-655h-326z" />
<glyph unicode="N" horiz-adv-x="1413" d="M123 0v1411h293l235 -342l310 -469h6v811h323v-1411h-291l-290 430l-250 381h-10v-811h-326z" />
<glyph unicode="O" horiz-adv-x="1331" d="M113 446v531q0 117 49 201t128 139t177 81.5t199 26.5q100 0 199.5 -28.5t178 -85t127 -142.5t48.5 -202v-521q0 -117 -45.5 -202.5t-121 -143t-176 -86t-210.5 -28.5q-111 0 -210.5 28.5t-176 86t-121.5 143.5t-45 202zM438 506q0 -61 20.5 -103.5t53.5 -68t73 -37.5 t81 -12q39 0 79.5 12t72.5 37.5t52.5 67.5t20.5 104v399q0 61 -20.5 103.5t-52.5 68t-72.5 37.5t-79.5 12q-41 0 -81 -12t-73 -37.5t-53.5 -67.5t-20.5 -104v-399z" />
<glyph unicode="P" horiz-adv-x="1202" d="M123 0v1411h616q119 0 203 -38t137.5 -101.5t78 -143t24.5 -165.5t-30 -166t-88 -143.5t-142 -101.5t-193 -38h-280v-514h-326zM449 805h239q92 0 131 46t39 112t-38 111.5t-132 45.5h-239v-315z" />
<glyph unicode="Q" horiz-adv-x="1331" d="M113 457v504q0 117 49 203.5t128 145t177 87t199 28.5q100 0 199.5 -28.5t178 -85t127 -142.5t48.5 -202v-510q0 -96 -31 -173t-86 -134.5t-129 -95.5t-160 -54v-45q0 -29 3 -48.5t16.5 -31.5t38 -17t67.5 -5h37v-232q-51 -6 -72.5 -7t-46.5 -1q-98 0 -164.5 24.5 t-105.5 65.5t-55.5 97.5t-16.5 121.5v78q-84 18 -157.5 56t-128 95.5t-85 133t-30.5 172.5zM438 506q0 -61 20.5 -103.5t53.5 -68t73 -37.5t81 -12q39 0 79.5 12t72.5 37.5t52.5 67.5t20.5 104v399q0 61 -20.5 103.5t-52.5 68t-72.5 37.5t-79.5 12q-41 0 -81 -12t-73 -37.5 t-53.5 -67.5t-20.5 -104v-399z" />
<glyph unicode="R" horiz-adv-x="1239" d="M123 0v1411h635q117 0 198.5 -39t134 -102.5t76 -144.5t23.5 -162q0 -55 -16.5 -111.5t-46 -107t-72.5 -94.5t-97 -75l252 -575h-348l-213 520h-200v-520h-326zM449 805h241q90 0 130 46t40 112t-41 111.5t-129 45.5h-241v-315z" />
<glyph unicode="S" horiz-adv-x="1269" d="M76 182l182 240q90 -72 181 -105.5t184 -33.5q68 0 112.5 12t72.5 31.5t39 42t11 43.5q0 31 -15.5 54t-52 43.5t-97 41t-150.5 45.5q-98 27 -174 60.5t-128.5 81.5t-79 114t-26.5 158q0 96 38 173t106.5 131t164 82.5t207.5 28.5q123 0 243 -22.5t249 -108.5l-146 -262 q-100 63 -183 79.5t-167 16.5q-78 0 -126 -25.5t-48 -84.5q0 -27 15.5 -48.5t52.5 -42t96 -40t145 -43.5q135 -37 217 -83t126 -100.5t58.5 -116.5t14.5 -130q0 -106 -45 -185t-122 -132.5t-180 -80t-218 -26.5q-78 0 -150.5 8t-140.5 29.5t-134.5 59.5t-131.5 95z" />
<glyph unicode="T" horiz-adv-x="1081" d="M20 1118v293h1041v-293h-356v-1118h-326v1118h-359z" />
<glyph unicode="U" horiz-adv-x="1351" d="M123 440v971h326v-909q0 -61 20 -103.5t53 -68t73 -37.5t81 -12q39 0 80 12t72.5 37.5t52 67.5t20.5 104v909h328v-962q0 -117 -47 -203t-125 -144.5t-177.5 -87t-203.5 -28.5t-203.5 27.5t-177.5 84t-125 141.5t-47 201z" />
<glyph unicode="V" horiz-adv-x="1275" d="M20 1411h349l127 -434l141 -502h12l144 510l122 426h340l-448 -1411h-334z" />
<glyph unicode="W" horiz-adv-x="1906" d="M20 1411h347l104 -512l86 -420h14l107 426l129 506h293l137 -539l98 -393h15l80 395l110 537h346l-358 -1411h-352l-115 479l-103 381h-16l-96 -381l-115 -479h-354z" />
<glyph unicode="X" horiz-adv-x="1265" d="M10 0l451 723l-424 688h366l230 -412l229 412h365l-422 -688l450 -723h-366l-256 446l-256 -446h-367z" />
<glyph unicode="Y" horiz-adv-x="1220" d="M20 1411h347l135 -317l102 -234h12l105 240l133 311h346l-426 -854v-557h-325v557z" />
<glyph unicode="Z" horiz-adv-x="1122" d="M61 0v281l607 841h-582v289h975v-270l-617 -852h617v-289h-1000z" />
<glyph unicode="[" horiz-adv-x="643" d="M137 -195v1627h469v-218h-190v-1194h190v-215h-469z" />
<glyph unicode="\" horiz-adv-x="753" d="M-31 1485h246l518 -1571h-244z" />
<glyph unicode="]" horiz-adv-x="643" d="M37 20h188v1194h-188v218h467v-1627h-467v215z" />
<glyph unicode="^" d="M53 481l398 942h229l391 -938h-266l-242 615l-244 -619h-266z" />
<glyph unicode="_" horiz-adv-x="1024" d="M0 -141h1024v-187h-1024v187z" />
<glyph unicode="`" horiz-adv-x="1056" d="M227 1481l275 94l190 -397l-166 -78z" />
<glyph unicode="a" horiz-adv-x="1103" d="M82 303q0 84 34 142.5t88 95.5t119.5 54t129.5 17h245v27q0 53 -32.5 87t-133.5 34q-49 0 -118.5 -13.5t-141.5 -70.5l-131 217q111 86 219.5 110.5t204.5 24.5q225 0 330.5 -101.5t105.5 -312.5v-614h-278l-18 76l-7 2q-80 -47 -152.5 -66.5t-135.5 -19.5 q-160 0 -244 83t-84 228zM414 328q0 -25 19.5 -45.5t68.5 -20.5q61 0 115.5 18.5t82.5 36.5v82h-192q-39 0 -66.5 -14t-27.5 -57z" />
<glyph unicode="b" horiz-adv-x="1097" d="M102 0v1466h304v-520q84 49 156.5 66.5t123.5 17.5q90 0 152.5 -26.5t102.5 -75.5t57.5 -117t17.5 -149v-297q0 -190 -93.5 -281.5t-256.5 -91.5q-53 0 -128 23.5t-143 60.5l-20 -76h-273zM406 330q16 -10 41.5 -20.5t54 -19.5t57.5 -15.5t49 -6.5q41 0 72 30t31 95v228 q0 72 -30 97t-73 25q-41 0 -95 -21.5t-107 -55.5v-336z" />
<glyph unicode="c" horiz-adv-x="952" d="M92 358v304q0 94 38 163.5t99.5 115.5t136 67.5t148.5 21.5q49 0 99.5 -4t101.5 -18.5t101 -44t99 -78.5l-172 -219q-72 63 -118.5 75.5t-79.5 12.5q-55 0 -103.5 -34t-48.5 -112v-194q0 -80 45 -113t101 -33q37 0 93 18.5t109 71.5l181 -206q-51 -53 -102.5 -85 t-102.5 -49.5t-102.5 -22.5t-100.5 -5q-82 0 -157.5 21.5t-134 66.5t-94.5 114.5t-36 165.5z" />
<glyph unicode="d" horiz-adv-x="1097" d="M82 365v297q0 82 21.5 149.5t65.5 116.5t110.5 75.5t156.5 26.5q51 0 124 -10t132 -47v493h303v-1466h-274l-21 88q-70 -45 -146.5 -71.5t-129.5 -26.5q-342 0 -342 375zM387 393q0 -74 31 -99.5t71 -25.5q41 0 99.5 21.5t103.5 50.5v352q-57 29 -100 40t-84 11 q-51 0 -86 -28.5t-35 -100.5v-221z" />
<glyph unicode="e" horiz-adv-x="1064" d="M92 367v262q0 98 36 171.5t97.5 125t141 77t170.5 25.5q96 0 178 -26.5t141 -77t93 -125t34 -172.5v-203h-590v-12q0 -76 46 -111t106 -35q37 0 99.5 10.5t137.5 63.5l160 -207q-51 -47 -99 -74.5t-96.5 -43t-96.5 -20.5t-97 -5q-90 0 -174 22.5t-147.5 68.5 t-101.5 117.5t-38 168.5zM393 612h287v13q0 61 -43 94t-98 33q-57 0 -101.5 -36t-44.5 -95v-9z" />
<glyph unicode="f" horiz-adv-x="665" d="M41 776v240h115v153q0 76 24.5 132.5t66.5 93.5t99 54t123 17h176v-245h-119q-80 0 -80 -84v-121h199v-240h-199v-776h-290v776h-115z" />
<glyph unicode="g" horiz-adv-x="1097" d="M82 375v276q0 182 89 279.5t253 97.5q53 0 125 -20.5t143 -67.5l21 76h282v-1069q0 -96 -47 -166t-118.5 -115t-156.5 -66.5t-161 -21.5q-49 0 -105.5 7t-111.5 27.5t-109.5 55.5t-99.5 88l195 195q25 -31 57.5 -49.5t64 -28.5t61.5 -13t48 -3q78 0 129 31.5t51 113.5v88 q-84 -49 -156.5 -66.5t-123.5 -17.5q-90 0 -152.5 26.5t-102.5 76t-57.5 117t-17.5 149.5zM387 416q0 -72 29.5 -97.5t72.5 -25.5q41 0 95.5 21.5t107.5 56.5v305q-41 29 -98 50.5t-105 21.5q-41 0 -71.5 -30t-30.5 -95v-207z" />
<glyph unicode="h" horiz-adv-x="1116" d="M102 0v1466h304v-530q102 63 176.5 78.5t126.5 15.5q88 0 148.5 -27.5t97 -76.5t53 -117t16.5 -150v-659h-305v621q0 70 -36 96t-75 26q-41 0 -85 -14t-117 -61v-668h-304z" />
<glyph unicode="i" horiz-adv-x="579" d="M123 1276q0 70 48 118t118 48t119 -48t49 -118q0 -72 -49.5 -120t-118.5 -48q-70 0 -118 48t-48 120zM139 0v1016h303v-1016h-303z" />
<glyph unicode="j" horiz-adv-x="585" d="M-18 -156h59q31 0 50.5 10.5t29.5 25t14 31.5t4 32v1073h303v-1122q0 -68 -25.5 -124.5t-70.5 -96.5t-107.5 -61.5t-134.5 -21.5h-122v254zM125 1276q0 70 48 118t118 48t119 -48t49 -118q0 -72 -49.5 -120t-118.5 -48q-70 0 -118 48t-48 120z" />
<glyph unicode="k" horiz-adv-x="1095" d="M102 0v1466h308v-733h51q53 0 86 29t59 80l86 172h342l-123 -252q-29 -59 -61.5 -100t-93.5 -64q43 -14 71.5 -37.5t47 -52.5t31 -61.5t22.5 -65.5l127 -381h-340l-101 330q-20 63 -56 94t-114 31h-34v-455h-308z" />
<glyph unicode="l" horiz-adv-x="591" d="M123 291v1175h299v-1114q0 -31 4 -49t17.5 -29.5t39 -16.5t68.5 -7l4 -250q-35 -6 -70.5 -8t-64.5 -2q-102 0 -161.5 21.5t-89.5 61.5t-38 95t-8 123z" />
<glyph unicode="m" horiz-adv-x="1658" d="M102 0v1016h271l20 -80q51 33 92 51.5t75 27.5t61.5 12t52.5 3q94 0 156.5 -34.5t97.5 -94.5q66 45 115 70.5t87.5 39t68.5 16.5t54 3q88 0 148.5 -30.5t97.5 -83t52.5 -123t15.5 -152.5v-641h-305v621q0 72 -30 97t-65 25q-41 0 -78.5 -15t-101.5 -60v-668h-305v621 q0 72 -29.5 97t-64.5 25q-41 0 -80 -15t-102 -60v-668h-304z" />
<glyph unicode="n" horiz-adv-x="1116" d="M102 0v1016h271l20 -80q102 63 183 78.5t133 15.5q88 0 148.5 -26.5t97 -74.5t53 -114.5t16.5 -148.5v-666h-305v621q0 72 -33 97t-78 25q-41 0 -85 -14t-117 -61v-668h-304z" />
<glyph unicode="o" horiz-adv-x="1075" d="M82 383v254q0 96 36 170t98.5 123t145 74.5t177.5 25.5q211 0 332.5 -102.5t121.5 -296.5v-248q0 -96 -32.5 -170t-93 -123t-144.5 -74.5t-184 -25.5q-213 0 -335 99t-122 294zM383 403q0 -80 49 -112.5t107 -32.5q55 0 104 33t49 112v213q0 80 -49 113t-104 33 q-57 0 -106.5 -33t-49.5 -113v-213z" />
<glyph unicode="p" horiz-adv-x="1097" d="M102 -406v1422h275l20 -88q70 45 150 71.5t133 26.5q336 0 336 -375v-297q0 -82 -21.5 -149.5t-65.5 -116.5t-110.5 -75.5t-156.5 -26.5q-51 0 -124 10t-132 47v-449h-304zM406 324q57 -29 100 -40.5t84 -11.5q51 0 86 29t35 100v222q0 74 -31 99.5t-72 25.5t-99 -21.5 t-103 -50.5v-352z" />
<glyph unicode="q" horiz-adv-x="1097" d="M82 360v297q0 190 93 281.5t257 91.5q53 0 129 -23.5t144 -66.5l20 76h270v-1422h-303v482q-84 -49 -156.5 -66.5t-123.5 -17.5q-90 0 -152.5 26.5t-102.5 75.5t-57.5 117t-17.5 149zM387 401q0 -72 29.5 -97t72.5 -25q41 0 95.5 21.5t107.5 55.5v336q-16 10 -41.5 20.5 t-54.5 19.5t-57.5 15.5t-49.5 6.5q-41 0 -71.5 -30t-30.5 -95v-228z" />
<glyph unicode="r" horiz-adv-x="827" d="M113 0v1016h280l19 -150h2q27 27 71.5 55.5t97 52t110 39t110.5 15.5v-307q-131 -12 -219 -39t-170 -78v-604h-301z" />
<glyph unicode="s" horiz-adv-x="968" d="M45 145l160 215q78 -63 140.5 -86.5t133.5 -23.5q66 0 99.5 19.5t33.5 45.5q0 25 -17 44.5t-87 31.5q-66 12 -138.5 27.5t-134 47.5t-101.5 85t-40 143q0 84 34 145.5t89 102.5t124 61.5t140 20.5q113 0 212.5 -21.5t203.5 -99.5l-141 -227q-82 55 -145.5 69.5 t-121.5 14.5q-57 0 -76.5 -18.5t-19.5 -39.5q0 -31 40 -44t98.5 -23t128 -24.5t128 -46.5t98.5 -90t40 -155q0 -82 -36 -143t-96.5 -103t-139 -62.5t-162.5 -20.5q-51 0 -104.5 5t-110 20.5t-115 46t-117.5 83.5z" />
<glyph unicode="t" horiz-adv-x="784" d="M43 778v238h125l47 256h246v-256h227v-238h-227v-393q0 -74 32.5 -97.5t110.5 -23.5q57 0 141 6l25 -243q-68 -25 -138.5 -32t-127.5 -7q-109 0 -175.5 25.5t-103.5 70.5t-50 107.5t-13 138.5v448h-119z" />
<glyph unicode="u" horiz-adv-x="1116" d="M92 375v641h305v-621q0 -35 11.5 -58.5t28 -37.5t36 -20.5t35.5 -6.5q41 0 85 14.5t118 61.5v668h303v-1016h-271l-20 80q-51 -33 -97 -51.5t-86 -27.5t-74 -12t-58 -3q-88 0 -148.5 30.5t-97.5 83t-53.5 123t-16.5 152.5z" />
<glyph unicode="v" horiz-adv-x="1079" d="M10 1016h340l90 -303q25 -78 50.5 -166t52.5 -168h6q23 78 48.5 167t49.5 167l92 303h330l-367 -1016h-323z" />
<glyph unicode="w" horiz-adv-x="1509" d="M10 1016h320l76 -326l59 -264h12q20 59 41 128t43 134l74 230h242l77 -248l80 -258h6q18 74 36 152.5t34 154.5t33.5 149.5t36.5 147.5h319l-285 -1016h-311l-76 236l-71 227l-8 2l-74 -234l-74 -231h-305z" />
<glyph unicode="x" horiz-adv-x="1062" d="M10 0l352 518l-337 498h342l163 -279l162 279h344l-338 -498l355 -518h-348l-175 293l-174 -293h-346z" />
<glyph unicode="y" horiz-adv-x="1028" d="M20 1016h308l80 -352l73 -304h8l99 310l108 346h310l-521 -1422h-295l158 431l-47 32z" />
<glyph unicode="z" horiz-adv-x="995" d="M72 0v244l489 520h-461v250h824v-234l-488 -518h488v-262h-852z" />
<glyph unicode="{" horiz-adv-x="643" d="M25 510v213q156 6 155 184v264q0 117 71 185.5t173 68.5h201v-206h-84q-23 0 -39.5 -11.5t-25.5 -29t-13 -39t-4 -39.5v-240q0 -94 -48.5 -154.5t-107.5 -89.5q72 -27 114 -87t42 -152v-242q0 -18 1 -39.5t8 -40t24.5 -30t48.5 -11.5h84v-204h-201q-102 0 -173 68.5 t-71 184.5v269q0 178 -155 178z" />
<glyph unicode="|" horiz-adv-x="530" d="M137 -467v1962h254v-1962h-254z" />
<glyph unicode="}" horiz-adv-x="643" d="M23 14h83q31 0 48.5 11.5t24.5 30t8 40t1 39.5v242q0 92 42 152.5t114 86.5q-59 29 -107.5 89.5t-48.5 154.5v240q0 39 -18 79t-64 40h-83v206h200q102 0 172 -68.5t70 -185.5v-264q0 -178 158 -184v-213q-158 0 -158 -178v-269q0 -117 -69.5 -185t-172.5 -68h-200v204z " />
<glyph unicode="~" d="M4 492q25 43 54.5 81.5t71.5 69.5t95 49.5t123 18.5q49 0 103.5 -21.5t108.5 -47.5t105.5 -47.5t94.5 -21.5q12 0 27.5 3.5t36 16.5t47 44t59.5 86l190 -129q-66 -133 -157 -196.5t-189 -63.5q-59 0 -111.5 20.5t-103.5 45t-104.5 45t-112.5 20.5q-41 0 -82 -23.5 t-94 -95.5z" />
<glyph unicode="&#xa1;" horiz-adv-x="573" d="M106 840q0 76 48.5 131t130.5 55q78 0 131 -54t53 -132q0 -39 -14.5 -72t-39 -57.5t-57 -38t-69.5 -13.5t-70 13.5t-58.5 38t-40 57.5t-14.5 72zM141 -414l15 983h262l16 -983h-293z" />
<glyph unicode="&#xa2;" horiz-adv-x="952" d="M92 358v304q0 86 33 151.5t85 111.5t118.5 71.5t134.5 31.5v268h143v-270q78 -6 155 -34.5t154 -106.5l-172 -219q-72 63 -118.5 75.5t-79.5 12.5q-55 0 -103.5 -34t-48.5 -112v-194q0 -80 45 -113t101 -33q37 0 93 18.5t109 71.5l181 -206q-78 -84 -158 -117t-158 -41 v-275h-143v273q-74 6 -141.5 30.5t-117.5 69.5t-81 110.5t-31 155.5z" />
<glyph unicode="&#xa3;" d="M61 547v213h134q-23 76 -51.5 140.5t-28.5 123.5q0 82 26.5 155.5t83 130t145.5 90.5t212 34q61 0 122.5 -8.5t120 -31t113.5 -62.5t104 -103l-223 -189q-59 78 -110.5 100.5t-110.5 22.5q-27 0 -52.5 -10t-47 -29.5t-34.5 -47t-13 -62.5q0 -27 9 -53.5t23.5 -56.5 t27.5 -65.5t24 -78.5h288v-213h-286q-8 -78 -28 -154t-52 -137h581v-256h-966v221q61 80 95 154t44 172h-150z" />
<glyph unicode="&#xa4;" horiz-adv-x="1138" d="M53 299l137 135q-61 111 -61 223q0 106 64 222l-140 137l150 151l139 -139q55 31 109.5 48.5t113.5 17.5q61 0 115.5 -15.5t107.5 -46.5q29 29 69 68t69 67l149 -151l-139 -137q31 -55 48 -110.5t17 -111.5q0 -61 -14 -113t-49 -110q29 -25 70 -65.5t67 -67.5l-149 -151 l-135 137q-53 -31 -109.5 -48.5t-116.5 -17.5q-59 0 -116.5 18.5t-108.5 47.5l-137 -137zM344 657q0 -45 17.5 -85t47 -69.5t69.5 -47t85 -17.5t85 17.5t71 47t48 69.5t17 85q0 47 -17 87t-48 70t-71 46.5t-85 16.5t-85 -16.5t-69.5 -46.5t-47 -70t-17.5 -87z" />
<glyph unicode="&#xa5;" d="M31 1411h346l176 -567h12l176 567h346l-256 -596h177v-194h-258l-27 -64v-65h285v-191h-285v-301h-326v301h-276v191h276v65l-28 64h-242v194h160z" />
<glyph unicode="&#xa6;" horiz-adv-x="530" d="M137 449h254v-916h-254v916zM137 582v913h254v-913h-254z" />
<glyph unicode="&#xa7;" horiz-adv-x="915" d="M59 717q0 49 20.5 107.5t78.5 121.5q-23 33 -36 70t-13 82q0 88 32.5 151.5t87 104.5t124 60.5t145.5 19.5q86 0 175 -21.5t161 -75.5l-117 -202q-66 41 -113 58t-100 17q-41 0 -73 -23.5t-32 -72.5q0 -47 34 -83t120 -75q61 -27 117.5 -58.5t99.5 -72.5t69.5 -94 t26.5 -123q0 -49 -21.5 -107.5t-76.5 -123.5q23 -33 38 -70t15 -80q0 -88 -33.5 -151.5t-90 -104.5t-128 -60.5t-147.5 -19.5q-86 0 -172 23t-158 76l101 203q55 -41 115.5 -59.5t113.5 -18.5q41 0 72.5 23.5t31.5 72.5q0 47 -33.5 83t-119.5 75q-61 27 -117.5 58.5 t-99.5 72.5t-70 94t-27 123zM332 735q0 -55 54 -94t124 -74q16 -10 32.5 -17t32.5 -18q18 31 19 58q0 55 -54.5 94t-123.5 74q-16 8 -32.5 15t-33.5 18q-18 -29 -18 -56z" />
<glyph unicode="&#xa8;" horiz-adv-x="1005" d="M145 1268q0 66 46.5 111.5t111.5 45.5q66 0 113 -46t47 -111q0 -66 -47 -113t-113 -47t-112 47t-46 113zM551 1268q0 66 47 111.5t113 45.5t111.5 -46t45.5 -111q0 -66 -46 -113t-111 -47q-66 0 -113 47t-47 113z" />
<glyph unicode="&#xa9;" horiz-adv-x="1679" d="M115 700q0 160 55 295t153.5 233.5t231.5 154t287 55.5t287 -54.5t231 -152.5t153.5 -233.5t55.5 -297.5q0 -160 -55.5 -294t-153.5 -232t-231 -152.5t-287 -54.5t-287 53.5t-231.5 149.5t-153.5 231.5t-55 298.5zM295 700q0 -123 42 -227t114.5 -181t173 -121t217.5 -44 t217 44t173 121t115 181.5t42 226.5q0 127 -42 233.5t-115 182.5t-173 118t-217 42t-217.5 -44t-173 -122t-114.5 -182.5t-42 -227.5zM498 516v326q0 76 30.5 132t80.5 94t112.5 57.5t128.5 19.5q80 0 160 -23.5t133 -70.5l-105 -158q-45 39 -91 52t-91 13q-27 0 -53.5 -8 t-48 -25.5t-35.5 -45t-14 -66.5v-254q0 -39 14 -66.5t36.5 -45t49 -25.5t53.5 -8q43 0 87 14t95 53l101 -159q-55 -45 -130 -71t-157 -26q-63 0 -126.5 17.5t-115 54.5t-83 91t-31.5 128z" />
<glyph unicode="&#xaa;" horiz-adv-x="761" d="M51 772q0 57 23.5 96t58.5 62.5t78 34t80 10.5h176v14q0 29 -21.5 51.5t-87.5 22.5q-29 0 -66.5 -9.5t-90.5 -39.5l-92 153q76 47 142 62.5t130 15.5q164 0 239.5 -67.5t75.5 -206.5v-404h-209l-12 70q-33 -35 -86 -55.5t-104 -20.5q-115 0 -174.5 56.5t-59.5 154.5z M285 788q0 -10 11 -29.5t44 -19.5q37 0 69.5 11.5t61.5 27.5v53h-127q-29 0 -44 -8t-15 -35z" />
<glyph unicode="&#xab;" horiz-adv-x="1210" d="M94 459l299 438h287l-293 -438l293 -439h-287zM561 459l299 438h287l-291 -438l291 -439h-287z" />
<glyph unicode="&#xac;" d="M37 492v237h1048l2 -618h-253v381h-797z" />
<glyph unicode="&#xad;" horiz-adv-x="901" d="M96 393v269h709v-269h-709z" />
<glyph unicode="&#xae;" horiz-adv-x="1077" d="M92 991q0 94 37 176t98.5 141.5t143.5 93.5t172 34q96 0 179 -34t143.5 -93.5t95 -141.5t34.5 -176t-36.5 -175t-99 -139.5t-144.5 -92t-172 -33.5q-96 0 -178 33.5t-142.5 92t-95.5 139.5t-35 175zM205 991q0 -72 25.5 -133t71.5 -107t107.5 -73t133.5 -27t133 27 t106 73t71 107.5t26 132.5q0 72 -26 134.5t-71 108.5t-106 71.5t-133 25.5t-133.5 -25.5t-107.5 -71.5t-71.5 -108.5t-25.5 -134.5zM373 745v500h198q66 0 113 -40t47 -111q0 -41 -19.5 -77t-62.5 -63l96 -209h-114l-80 191h-72v-191h-106zM479 1036h88q29 0 45.5 15.5 t16.5 42.5q0 49 -58 49h-92v-107z" />
<glyph unicode="&#xaf;" horiz-adv-x="1056" d="M188 1184v241h682v-241h-682z" />
<glyph unicode="&#xb0;" horiz-adv-x="886" d="M109 1122q0 63 26.5 120.5t71.5 100.5t105.5 68t129.5 25q70 0 131.5 -25t106.5 -68t71.5 -100.5t26.5 -120.5q0 -66 -26.5 -123t-71.5 -100t-106.5 -67.5t-131.5 -24.5t-130 24.5t-105 67.5t-71.5 100.5t-26.5 122.5zM309 1122q0 -53 40 -90t93 -37q55 0 94 37t39 90 t-38.5 89t-94.5 36q-53 0 -93 -35.5t-40 -89.5z" />
<glyph unicode="&#xb1;" d="M29 0v231h1069v-231h-1069zM37 655v238h399v373h254v-373h400v-238h-400v-354h-254v354h-399z" />
<glyph unicode="&#xb2;" horiz-adv-x="733" d="M72 752v137q0 59 21.5 107t55 88t74.5 71t80 57q59 41 103.5 72t44.5 70q0 25 -28 41t-67 16q-41 0 -85 -13.5t-85 -45.5l-102 157q59 45 134 69t155 24q55 0 108.5 -12.5t95 -42t67.5 -76.5t26 -117q0 -43 -16.5 -81t-42 -70t-57.5 -59.5t-62 -47.5q-20 -14 -50 -34 t-59 -41.5t-53.5 -45t-32.5 -45.5h373v-178h-598z" />
<glyph unicode="&#xb3;" horiz-adv-x="733" d="M74 831l98 160q41 -29 85 -44t85 -15q49 0 81 21.5t32 56.5t-26 58.5t-58 23.5h-138v168h138q31 0 54.5 21.5t23.5 57.5q0 41 -34 56.5t-71 15.5q-41 0 -85 -13.5t-85 -45.5l-96 161q59 47 128.5 68t151.5 21q61 0 116.5 -14.5t97.5 -44.5t67 -78t25 -115 q0 -59 -34 -105.5t-87 -60.5q27 -6 50 -23.5t40.5 -41t27 -51.5t9.5 -52q0 -74 -30 -125t-76 -84t-102 -48.5t-110 -15.5q-80 0 -149.5 20.5t-128.5 67.5z" />
<glyph unicode="&#xb4;" horiz-adv-x="1056" d="M375 1161l174 416l272 -88l-276 -389z" />
<glyph unicode="&#xb6;" horiz-adv-x="1153" d="M63 1030q0 86 31 161t86.5 132t130 90t160.5 33h178v-823h-178q-88 0 -163 31.5t-129 87t-85 129t-31 159.5zM547 -76q72 12 118 29.5t72.5 45.5t36.5 66.5t10 94.5v1286h254v-1323q0 -104 -24.5 -183t-79.5 -131.5t-145.5 -79t-221.5 -28.5z" />
<glyph unicode="&#xb7;" horiz-adv-x="602" d="M104 596q0 43 16.5 79t43 62.5t62.5 42t77 15.5t77 -15.5t63.5 -42t44 -62.5t16.5 -79q0 -84 -53.5 -144.5t-143.5 -60.5q-86 0 -144.5 59.5t-58.5 145.5z" />
<glyph unicode="&#xb8;" horiz-adv-x="948" d="M240 -391l51 127q51 -25 84 -31t67 -6q33 0 57.5 15.5t24.5 45.5q0 20 -11 32.5t-26.5 16t-32 1t-28.5 -8.5l-80 41l82 258l147 2l-57 -176q106 -12 151.5 -67.5t45.5 -116.5q0 -37 -16.5 -70.5t-48.5 -61.5t-78 -44.5t-103 -16.5q-66 0 -125 15.5t-104 44.5z" />
<glyph unicode="&#xb9;" horiz-adv-x="733" d="M111 1421l213 172h188v-841h-213v579l-66 -53z" />
<glyph unicode="&#xba;" horiz-adv-x="741" d="M51 838v131q0 66 25.5 117t69.5 86.5t102.5 55t122.5 19.5q141 0 231 -75.5t90 -206.5v-127q0 -131 -89 -204t-232 -73q-70 0 -128.5 18.5t-101.5 54.5t-66.5 87t-23.5 117zM279 854q0 -47 28.5 -69.5t63.5 -22.5t63.5 22.5t28.5 69.5v100q0 45 -28.5 67.5t-63.5 22.5 t-63.5 -22.5t-28.5 -67.5v-100z" />
<glyph unicode="&#xbb;" horiz-adv-x="1210" d="M94 20l291 439l-291 438h287l299 -438l-299 -439h-287zM561 20l293 439l-293 438h287l299 -438l-299 -439h-287z" />
<glyph unicode="&#xbc;" horiz-adv-x="1802" d="M168 1237l213 172h188v-842h-213v580l-65 -53zM330 -35l870 1495h211l-872 -1495h-209zM973 115v149l291 578h225l-277 -551h136v207h211v-207h73v-176h-73v-115h-211v115h-375z" />
<glyph unicode="&#xbd;" horiz-adv-x="1802" d="M129 1237l213 172h188v-842h-213v580l-65 -53zM293 -35l870 1495h211l-872 -1495h-209zM1073 0v137q0 59 21.5 107.5t55.5 88.5t75 70.5t80 57.5q59 41 103 71.5t44 69.5q0 25 -27.5 41t-66.5 16q-41 0 -85 -13t-85 -46l-105 158q59 45 134 70.5t155 25.5 q55 0 108.5 -12.5t95.5 -42t68.5 -76.5t26.5 -117q0 -43 -16.5 -81t-42 -71.5t-57 -61t-62.5 -48.5q-20 -14 -50 -33.5t-60.5 -41t-55 -45t-33.5 -46.5h377v-178h-598z" />
<glyph unicode="&#xbe;" horiz-adv-x="1802" d="M123 647l98 160q41 -29 85 -44t85 -15q49 0 81 21.5t32 55.5q0 35 -25.5 58.5t-58.5 23.5h-137v168h137q31 0 54.5 21.5t23.5 58.5q0 41 -34 56.5t-71 15.5q-41 0 -85 -13.5t-85 -46.5l-96 162q59 47 129 67.5t152 20.5q61 0 116.5 -14t97.5 -44t66.5 -78t24.5 -116 q0 -59 -34 -105t-87 -61q27 -6 50.5 -23.5t40.5 -41t26.5 -51t9.5 -52.5q0 -74 -30 -125t-76 -83.5t-102 -48t-110 -15.5q-80 0 -149.5 20.5t-128.5 67.5zM393 -35l871 1495h211l-873 -1495h-209zM1018 115v149l291 578h225l-277 -551h136v207h211v-207h73v-176h-73v-115 h-211v115h-375z" />
<glyph unicode="&#xbf;" horiz-adv-x="1030" d="M63 -55q0 72 20.5 127t50.5 101t66 87t65.5 84t50 92t20.5 111v33h309v-35q0 -59 -8 -104.5t-28.5 -90.5t-52.5 -94t-81 -115q-16 -23 -34.5 -62.5t-18.5 -82.5q0 -49 36 -86t124 -37q59 0 117.5 23.5t117.5 76.5l148 -245q-94 -78 -211 -115t-240 -37q-102 0 -186 28.5 t-142.5 78t-90.5 117t-32 145.5zM311 840q0 76 48 131t130 55q78 0 131.5 -54t53.5 -132q0 -39 -14.5 -72t-39 -57.5t-57.5 -38t-69 -13.5q-37 0 -70 13.5t-58.5 38t-40 57.5t-14.5 72z" />
<glyph unicode="&#xc0;" horiz-adv-x="1349" d="M8 0l498 1411h336l489 -1411h-348l-86 279h-455l-84 -279h-350zM285 1686l164 229l389 -273l-105 -147zM524 545h291l-29 96l-112 389h-8l-113 -389z" />
<glyph unicode="&#xc1;" horiz-adv-x="1349" d="M8 0l498 1411h336l489 -1411h-348l-86 279h-455l-84 -279h-350zM524 545h291l-29 96l-112 389h-8l-113 -389zM530 1647l373 268l164 -229l-438 -185z" />
<glyph unicode="&#xc2;" horiz-adv-x="1349" d="M8 0l498 1411h336l489 -1411h-348l-86 279h-455l-84 -279h-350zM262 1608l305 245h201l309 -245l-104 -121l-305 162l-308 -160zM524 545h291l-29 96l-112 389h-8l-113 -389z" />
<glyph unicode="&#xc3;" horiz-adv-x="1349" d="M8 0l498 1411h336l489 -1411h-348l-86 279h-455l-84 -279h-350zM258 1593q53 113 114.5 169.5t155.5 56.5q41 -2 80 -17.5t74 -34t64.5 -34t52.5 -15.5q35 0 62.5 20.5t68.5 73.5l145 -86q-57 -123 -115.5 -174t-132.5 -51q-43 0 -81.5 15.5t-74.5 33t-69 32.5t-59 15 q-35 0 -66 -15t-78 -77zM524 545h291l-29 96l-112 389h-8l-113 -389z" />
<glyph unicode="&#xc4;" horiz-adv-x="1349" d="M8 0l498 1411h336l489 -1411h-348l-86 279h-455l-84 -279h-350zM307 1663q0 66 46 112t112 46t113 -46t47 -112t-47.5 -113t-112.5 -47q-66 0 -112 47t-46 113zM524 545h291l-29 96l-112 389h-8l-113 -389zM713 1663q0 66 47 112t112 46q66 0 112 -46t46 -112t-46 -113 t-112 -47t-112.5 47t-46.5 113z" />
<glyph unicode="&#xc5;" horiz-adv-x="1349" d="M8 0l498 1411h336l489 -1411h-348l-86 279h-455l-84 -279h-350zM416 1702q0 49 20.5 92t55 76t80.5 51t100 18q51 0 98 -18t81 -51t54.5 -76t20.5 -92t-20.5 -92t-55.5 -76t-81 -51.5t-99 -18.5t-99.5 18.5t-80 51.5t-54 76t-20.5 92zM524 545h291l-29 96l-112 389h-8 l-113 -389zM588 1702q0 -33 24.5 -55.5t59.5 -22.5t58.5 22.5t23.5 55.5t-23.5 54.5t-58.5 21.5t-59.5 -21.5t-24.5 -54.5z" />
<glyph unicode="&#xc6;" horiz-adv-x="2084" d="M-2 0l850 1411h1145v-291h-660v-264h563v-289h-563v-278h660v-289h-985v293l-473 2l-168 -295h-369zM676 567l332 -2v557h-7z" />
<glyph unicode="&#xc7;" horiz-adv-x="1181" d="M123 436v533q0 117 48 201.5t126 141t175 84t198 27.5q125 0 245.5 -34.5t204.5 -108.5l-157 -252q-70 59 -142.5 78.5t-140.5 19.5q-41 0 -82 -12t-73.5 -37.5t-54 -67.5t-21.5 -104v-399q0 -61 21.5 -103.5t55 -68t74.5 -37.5t82 -12q66 0 135.5 19.5t147.5 78.5 l153 -254q-80 -66 -186.5 -102.5t-222.5 -40.5l-19 -60q106 -12 151.5 -67.5t45.5 -116.5q0 -37 -16.5 -70.5t-48 -61.5t-78 -44.5t-103.5 -16.5q-66 0 -125 15.5t-104 44.5l51 127q51 -25 84 -31t67 -6q33 0 57.5 15.5t24.5 45.5q0 20 -11 32.5t-26.5 16t-32 1t-28.5 -8.5 l-80 41l47 152q-86 12 -166 45t-141 88t-98 132t-37 177z" />
<glyph unicode="&#xc8;" horiz-adv-x="1200" d="M123 0v1411h985v-291h-659v-264h563v-289h-563v-278h659v-289h-985zM262 1686l164 229l389 -273l-104 -147z" />
<glyph unicode="&#xc9;" horiz-adv-x="1200" d="M123 0v1411h985v-291h-659v-264h563v-289h-563v-278h659v-289h-985zM469 1647l373 268l164 -229l-439 -185z" />
<glyph unicode="&#xca;" horiz-adv-x="1200" d="M123 0v1411h985v-291h-659v-264h563v-289h-563v-278h659v-289h-985zM211 1608l305 245h201l309 -245l-104 -121l-306 162l-307 -160z" />
<glyph unicode="&#xcb;" horiz-adv-x="1200" d="M123 0v1411h985v-291h-659v-264h563v-289h-563v-278h659v-289h-985zM262 1663q0 66 46 112t112 46t113 -46t47 -112t-47.5 -113t-112.5 -47q-66 0 -112 47t-46 113zM668 1663q0 66 47 112t112 46q66 0 112 -46t46 -112t-46 -113t-112 -47t-112.5 47t-46.5 113z" />
<glyph unicode="&#xcc;" horiz-adv-x="653" d="M-94 1686l164 229l389 -273l-105 -147zM164 0v1411h325v-1411h-325z" />
<glyph unicode="&#xcd;" horiz-adv-x="653" d="M164 0v1411h325v-1411h-325zM219 1647l373 268l164 -229l-439 -185z" />
<glyph unicode="&#xce;" horiz-adv-x="653" d="M-78 1608l305 245h201l309 -245l-104 -121l-305 162l-308 -160zM164 0v1411h325v-1411h-325z" />
<glyph unicode="&#xcf;" horiz-adv-x="653" d="M-33 1663q0 66 46 112t112 46t113 -46t47 -112t-47.5 -113t-112.5 -47q-66 0 -112 47t-46 113zM164 0v1411h325v-1411h-325zM373 1663q0 66 47 112t112 46q66 0 112 -46t46 -112t-46 -113t-112 -47t-112.5 47t-46.5 113z" />
<glyph unicode="&#xd0;" horiz-adv-x="1273" d="M12 582v219h111v610h536q109 0 202 -26.5t163 -82t108.5 -139.5t38.5 -200v-512q0 -117 -44 -202t-116.5 -140.5t-164.5 -82t-187 -26.5h-536v582h-111zM449 287h169q39 0 80 12t73 37.5t52.5 69t20.5 104.5v389q0 61 -20.5 103t-52.5 68t-73 38t-80 12h-169v-319h192 v-219h-192v-295z" />
<glyph unicode="&#xd1;" horiz-adv-x="1413" d="M123 0v1411h293l235 -342l310 -469h6v811h323v-1411h-291l-290 430l-250 381h-10v-811h-326zM297 1585q53 113 114.5 169t155.5 56q41 -2 80 -17t74 -33.5t64.5 -34t52.5 -15.5q35 0 62.5 20.5t68.5 73.5l145 -86q-57 -123 -115.5 -174t-132.5 -51q-43 0 -82 15.5 t-74.5 33t-68.5 32.5t-59 15q-35 0 -66 -15t-78 -77z" />
<glyph unicode="&#xd2;" horiz-adv-x="1331" d="M113 446v531q0 117 49 201t128 139t177 81.5t199 26.5q100 0 199.5 -28.5t178 -85t127 -142.5t48.5 -202v-521q0 -117 -45.5 -202.5t-121 -143t-176 -86t-210.5 -28.5q-111 0 -210.5 28.5t-176 86t-121.5 143.5t-45 202zM348 1686l164 229l389 -273l-104 -147zM438 506 q0 -61 20.5 -103.5t53.5 -68t73 -37.5t81 -12q39 0 79.5 12t72.5 37.5t52.5 67.5t20.5 104v399q0 61 -20.5 103.5t-52.5 68t-72.5 37.5t-79.5 12q-41 0 -81 -12t-73 -37.5t-53.5 -67.5t-20.5 -104v-399z" />
<glyph unicode="&#xd3;" horiz-adv-x="1331" d="M113 446v531q0 117 49 201t128 139t177 81.5t199 26.5q100 0 199.5 -28.5t178 -85t127 -142.5t48.5 -202v-521q0 -117 -45.5 -202.5t-121 -143t-176 -86t-210.5 -28.5q-111 0 -210.5 28.5t-176 86t-121.5 143.5t-45 202zM438 506q0 -61 20.5 -103.5t53.5 -68t73 -37.5 t81 -12q39 0 79.5 12t72.5 37.5t52.5 67.5t20.5 104v399q0 61 -20.5 103.5t-52.5 68t-72.5 37.5t-79.5 12q-41 0 -81 -12t-73 -37.5t-53.5 -67.5t-20.5 -104v-399zM469 1647l373 268l164 -229l-439 -185z" />
<glyph unicode="&#xd4;" horiz-adv-x="1331" d="M113 446v531q0 117 49 201t128 139t177 81.5t199 26.5q100 0 199.5 -28.5t178 -85t127 -142.5t48.5 -202v-521q0 -117 -45.5 -202.5t-121 -143t-176 -86t-210.5 -28.5q-111 0 -210.5 28.5t-176 86t-121.5 143.5t-45 202zM264 1608l305 245h201l309 -245l-104 -121 l-305 162l-308 -160zM438 506q0 -61 20.5 -103.5t53.5 -68t73 -37.5t81 -12q39 0 79.5 12t72.5 37.5t52.5 67.5t20.5 104v399q0 61 -20.5 103.5t-52.5 68t-72.5 37.5t-79.5 12q-41 0 -81 -12t-73 -37.5t-53.5 -67.5t-20.5 -104v-399z" />
<glyph unicode="&#xd5;" horiz-adv-x="1331" d="M113 446v531q0 117 49 201t128 139t177 81.5t199 26.5q100 0 199.5 -28.5t178 -85t127 -142.5t48.5 -202v-521q0 -117 -45.5 -202.5t-121 -143t-176 -86t-210.5 -28.5q-111 0 -210.5 28.5t-176 86t-121.5 143.5t-45 202zM258 1579q53 113 114.5 169t155.5 56 q41 -2 80 -17t74 -33.5t64.5 -34t52.5 -15.5q35 0 62.5 20.5t68.5 73.5l145 -86q-57 -123 -115.5 -174t-132.5 -51q-43 0 -81.5 15.5t-74.5 32.5t-69 32.5t-59 15.5q-35 0 -66 -15.5t-78 -76.5zM438 506q0 -61 20.5 -103.5t53.5 -68t73 -37.5t81 -12q39 0 79.5 12t72.5 37.5 t52.5 67.5t20.5 104v399q0 61 -20.5 103.5t-52.5 68t-72.5 37.5t-79.5 12q-41 0 -81 -12t-73 -37.5t-53.5 -67.5t-20.5 -104v-399z" />
<glyph unicode="&#xd6;" horiz-adv-x="1331" d="M113 446v531q0 117 49 201t128 139t177 81.5t199 26.5q100 0 199.5 -28.5t178 -85t127 -142.5t48.5 -202v-521q0 -117 -45.5 -202.5t-121 -143t-176 -86t-210.5 -28.5q-111 0 -210.5 28.5t-176 86t-121.5 143.5t-45 202zM311 1663q0 66 46 112t112 46t113 -46t47 -112 t-47 -113t-113 -47t-112 47t-46 113zM438 506q0 -61 20.5 -103.5t53.5 -68t73 -37.5t81 -12q39 0 79.5 12t72.5 37.5t52.5 67.5t20.5 104v399q0 61 -20.5 103.5t-52.5 68t-72.5 37.5t-79.5 12q-41 0 -81 -12t-73 -37.5t-53.5 -67.5t-20.5 -104v-399zM717 1663q0 66 47 112 t113 46t111.5 -46t45.5 -112t-46 -113t-111 -47q-66 0 -113 47t-47 113z" />
<glyph unicode="&#xd7;" d="M49 954l168 168l340 -340l322 324l180 -180l-324 -322l340 -340l-168 -168l-340 340l-327 -327l-179 178l328 327z" />
<glyph unicode="&#xd8;" horiz-adv-x="1331" d="M109 53l90 125q-41 53 -63.5 120t-22.5 148v531q0 117 49 201t128 139t177 81.5t199 26.5q98 0 194 -27.5t174 -80.5l84 117l105 -76l-95 -127q41 -53 66 -118.5t25 -145.5v-521q0 -117 -45.5 -202.5t-121 -143t-176 -86t-210.5 -28.5q-106 0 -202.5 26.5t-172.5 79.5 l-82 -110zM438 504l402 551q-33 37 -80 54t-94 17q-41 0 -81 -12t-73 -37.5t-53.5 -67.5t-20.5 -104v-399v-2zM487 358q35 -41 83 -57t96 -16q39 0 79.5 12t72.5 37.5t52.5 67.5t20.5 104v399v2z" />
<glyph unicode="&#xd9;" horiz-adv-x="1351" d="M123 440v971h326v-909q0 -61 20 -103.5t53 -68t73 -37.5t81 -12q39 0 80 12t72.5 37.5t52 67.5t20.5 104v909h328v-962q0 -117 -47 -203t-125 -144.5t-177.5 -87t-203.5 -28.5t-203.5 27.5t-177.5 84t-125 141.5t-47 201zM322 1686l163 229l389 -273l-104 -147z" />
<glyph unicode="&#xda;" horiz-adv-x="1351" d="M123 440v971h326v-909q0 -61 20 -103.5t53 -68t73 -37.5t81 -12q39 0 80 12t72.5 37.5t52 67.5t20.5 104v909h328v-962q0 -117 -47 -203t-125 -144.5t-177.5 -87t-203.5 -28.5t-203.5 27.5t-177.5 84t-125 141.5t-47 201zM469 1647l373 268l164 -229l-439 -185z" />
<glyph unicode="&#xdb;" horiz-adv-x="1351" d="M123 440v971h326v-909q0 -61 20 -103.5t53 -68t73 -37.5t81 -12q39 0 80 12t72.5 37.5t52 67.5t20.5 104v909h328v-962q0 -117 -47 -203t-125 -144.5t-177.5 -87t-203.5 -28.5t-203.5 27.5t-177.5 84t-125 141.5t-47 201zM264 1608l305 245h201l309 -245l-104 -121 l-305 162l-308 -160z" />
<glyph unicode="&#xdc;" horiz-adv-x="1351" d="M123 440v971h326v-909q0 -61 20 -103.5t53 -68t73 -37.5t81 -12q39 0 80 12t72.5 37.5t52 67.5t20.5 104v909h328v-962q0 -117 -47 -203t-125 -144.5t-177.5 -87t-203.5 -28.5t-203.5 27.5t-177.5 84t-125 141.5t-47 201zM313 1663q0 66 46.5 112t111.5 46q66 0 113 -46 t47 -112t-47 -113t-113 -47t-112 47t-46 113zM719 1663q0 66 47 112t113 46t111.5 -46t45.5 -112t-46 -113t-111 -47q-66 0 -113 47t-47 113z" />
<glyph unicode="&#xdd;" horiz-adv-x="1220" d="M20 1411h347l135 -317l102 -234h12l105 240l133 311h346l-426 -854v-557h-325v557zM469 1647l373 268l164 -229l-439 -185z" />
<glyph unicode="&#xde;" horiz-adv-x="1202" d="M123 0v1411l326 -2v-246h325q106 0 183 -41t127.5 -105.5t74 -144t23.5 -157.5t-28 -158t-81 -144.5t-131 -105.5t-178 -41h-315v-266h-326zM449 557h249q90 0 130 46t40 112t-41 111.5t-129 45.5h-249v-315z" />
<glyph unicode="&#xdf;" horiz-adv-x="1103" d="M102 0v979q0 98 31 186t87 153.5t138 103.5t187 38q125 0 209 -35.5t134 -91t70.5 -122t20.5 -128.5q0 -29 -7 -66.5t-23.5 -74.5t-43 -68.5t-65.5 -50.5q94 -33 133 -108.5t41 -173.5l2 -187q0 -82 -21.5 -149.5t-65.5 -116.5t-110.5 -75.5t-156.5 -26.5q-23 0 -52.5 2 t-62.5 6v278h43q51 0 86 29t35 100v121q0 39 -14.5 67.5t-36 46t-50 26t-55.5 8.5h-16v237h22q37 0 63.5 16.5t44 40t25.5 50t8 49.5q0 59 -34.5 105t-118.5 46q-39 0 -66.5 -17t-44 -43t-24.5 -53.5t-8 -47.5v-1053h-304z" />
<glyph unicode="&#xe0;" horiz-adv-x="1103" d="M82 303q0 84 34 142.5t88 95.5t119.5 54t129.5 17h245v27q0 53 -32.5 87t-133.5 34q-49 0 -118.5 -13.5t-141.5 -70.5l-131 217q111 86 219.5 110.5t204.5 24.5q225 0 330.5 -101.5t105.5 -312.5v-614h-278l-18 76l-7 2q-80 -47 -152.5 -66.5t-135.5 -19.5 q-160 0 -244 83t-84 228zM254 1481l274 94l191 -397l-166 -78zM414 328q0 -25 19.5 -45.5t68.5 -20.5q61 0 115.5 18.5t82.5 36.5v82h-192q-39 0 -66.5 -14t-27.5 -57z" />
<glyph unicode="&#xe1;" horiz-adv-x="1103" d="M82 303q0 84 34 142.5t88 95.5t119.5 54t129.5 17h245v27q0 53 -32.5 87t-133.5 34q-49 0 -118.5 -13.5t-141.5 -70.5l-131 217q111 86 219.5 110.5t204.5 24.5q225 0 330.5 -101.5t105.5 -312.5v-614h-278l-18 76l-7 2q-80 -47 -152.5 -66.5t-135.5 -19.5 q-160 0 -244 83t-84 228zM414 328q0 -25 19.5 -45.5t68.5 -20.5q61 0 115.5 18.5t82.5 36.5v82h-192q-39 0 -66.5 -14t-27.5 -57zM463 1161l174 416l272 -88l-276 -389z" />
<glyph unicode="&#xe2;" horiz-adv-x="1103" d="M82 303q0 84 34 142.5t88 95.5t119.5 54t129.5 17h245v27q0 53 -32.5 87t-133.5 34q-49 0 -118.5 -13.5t-141.5 -70.5l-131 217q111 86 219.5 110.5t204.5 24.5q225 0 330.5 -101.5t105.5 -312.5v-614h-278l-18 76l-7 2q-80 -47 -152.5 -66.5t-135.5 -19.5 q-160 0 -244 83t-84 228zM166 1167l301 318h211l303 -318l-115 -100l-295 213q-74 -53 -148.5 -106.5t-148.5 -104.5zM414 328q0 -25 19.5 -45.5t68.5 -20.5q61 0 115.5 18.5t82.5 36.5v82h-192q-39 0 -66.5 -14t-27.5 -57z" />
<glyph unicode="&#xe3;" horiz-adv-x="1103" d="M82 303q0 84 34 142.5t88 95.5t119.5 54t129.5 17h245v27q0 53 -32.5 87t-133.5 34q-49 0 -118.5 -13.5t-141.5 -70.5l-131 217q111 86 219.5 110.5t204.5 24.5q225 0 330.5 -101.5t105.5 -312.5v-614h-278l-18 76l-7 2q-80 -47 -152.5 -66.5t-135.5 -19.5 q-160 0 -244 83t-84 228zM143 1231q53 113 115 169t156 56q41 -2 79.5 -17.5t73.5 -34t65 -33.5t52 -15q35 0 62.5 20.5t68.5 73.5l146 -86q-57 -123 -116 -174t-132 -51q-43 0 -82 15t-75 32.5t-68.5 33t-59.5 15.5q-35 0 -65.5 -15.5t-77.5 -76.5zM414 328 q0 -25 19.5 -45.5t68.5 -20.5q61 0 115.5 18.5t82.5 36.5v82h-192q-39 0 -66.5 -14t-27.5 -57z" />
<glyph unicode="&#xe4;" horiz-adv-x="1103" d="M82 303q0 84 34 142.5t88 95.5t119.5 54t129.5 17h245v27q0 53 -32.5 87t-133.5 34q-49 0 -118.5 -13.5t-141.5 -70.5l-131 217q111 86 219.5 110.5t204.5 24.5q225 0 330.5 -101.5t105.5 -312.5v-614h-278l-18 76l-7 2q-80 -47 -152.5 -66.5t-135.5 -19.5 q-160 0 -244 83t-84 228zM215 1268q0 66 46 111.5t112 45.5t112.5 -46t46.5 -111q0 -66 -47 -113t-112 -47q-66 0 -112 47t-46 113zM414 328q0 -25 19.5 -45.5t68.5 -20.5q61 0 115.5 18.5t82.5 36.5v82h-192q-39 0 -66.5 -14t-27.5 -57zM621 1268q0 66 47 111.5t112 45.5 q66 0 112 -46t46 -111q0 -66 -46 -113t-112 -47t-112.5 47t-46.5 113z" />
<glyph unicode="&#xe5;" horiz-adv-x="1103" d="M82 303q0 84 34 142.5t88 95.5t119.5 54t129.5 17h245v27q0 53 -32.5 87t-133.5 34q-49 0 -118.5 -13.5t-141.5 -70.5l-131 217q111 86 219.5 110.5t204.5 24.5q225 0 330.5 -101.5t105.5 -312.5v-614h-278l-18 76l-7 2q-80 -47 -152.5 -66.5t-135.5 -19.5 q-160 0 -244 83t-84 228zM340 1317q0 49 20.5 92t55.5 76t81 51t99 18q51 0 98 -18t81 -51t54.5 -76t20.5 -92t-20.5 -92t-55.5 -76t-81 -51.5t-99 -18.5t-99 18.5t-80 51.5t-54.5 76t-20.5 92zM414 328q0 -25 19.5 -45.5t68.5 -20.5q61 0 115.5 18.5t82.5 36.5v82h-192 q-39 0 -66.5 -14t-27.5 -57zM512 1317q0 -33 24.5 -55.5t59.5 -22.5t58.5 22.5t23.5 55.5t-23.5 54.5t-58.5 21.5t-59.5 -21.5t-24.5 -54.5z" />
<glyph unicode="&#xe6;" horiz-adv-x="1673" d="M82 303q0 84 34 142.5t88 94t119.5 52t129.5 16.5h245v27q0 53 -40 87t-140 34q-49 0 -111.5 -13.5t-134.5 -70.5l-139 217q111 86 216.5 110.5t201.5 24.5q203 0 313 -80q121 80 281 80q96 0 178 -26.5t141.5 -77t93 -125t33.5 -172.5v-199h-590v-21q2 -72 48.5 -104.5 t103.5 -32.5q37 0 99.5 10.5t138.5 63.5l159 -207q-51 -47 -99 -74.5t-96 -43t-96.5 -20.5t-97.5 -5q-102 0 -193 27.5t-157 86.5q-66 -47 -127 -71.5t-113.5 -34.5t-93.5 -11t-63 -1q-160 0 -246 86t-86 231zM414 328q0 -25 19.5 -45.5t68.5 -20.5q61 0 115.5 18.5 t82.5 36.5v107h-180q-45 0 -75.5 -26.5t-30.5 -69.5zM1001 608h287v13q0 61 -43 94t-98 33t-99 -34t-47 -91v-15z" />
<glyph unicode="&#xe7;" horiz-adv-x="952" d="M92 358v304q0 94 38 163.5t99.5 115.5t136 67.5t148.5 21.5q49 0 99.5 -4t101.5 -18.5t101 -44t99 -78.5l-172 -219q-72 63 -118.5 75.5t-79.5 12.5q-55 0 -103.5 -34t-48.5 -112v-194q0 -80 45 -113t101 -33q37 0 93 18.5t109 71.5l181 -206q-88 -92 -176.5 -124 t-176.5 -36l-20 -66q106 -12 151 -67.5t45 -116.5q0 -37 -16 -70.5t-48 -61.5t-78 -44.5t-103 -16.5q-66 0 -125.5 15.5t-104.5 44.5l52 127q51 -25 83.5 -31t67.5 -6q33 0 57.5 15.5t24.5 45.5q0 20 -11.5 32.5t-26.5 16t-31.5 1t-28.5 -8.5l-80 41l49 154 q-68 10 -129 36.5t-106.5 70.5t-72 107.5t-26.5 147.5z" />
<glyph unicode="&#xe8;" horiz-adv-x="1064" d="M92 367v262q0 98 36 171.5t97.5 125t141 77t170.5 25.5q96 0 178 -26.5t141 -77t93 -125t34 -172.5v-203h-590v-12q0 -76 46 -111t106 -35q37 0 99.5 10.5t137.5 63.5l160 -207q-51 -47 -99 -74.5t-96.5 -43t-96.5 -20.5t-97 -5q-90 0 -174 22.5t-147.5 68.5 t-101.5 117.5t-38 168.5zM207 1481l274 94l191 -397l-166 -78zM393 612h287v13q0 61 -43 94t-98 33q-57 0 -101.5 -36t-44.5 -95v-9z" />
<glyph unicode="&#xe9;" horiz-adv-x="1064" d="M92 367v262q0 98 36 171.5t97.5 125t141 77t170.5 25.5q96 0 178 -26.5t141 -77t93 -125t34 -172.5v-203h-590v-12q0 -76 46 -111t106 -35q37 0 99.5 10.5t137.5 63.5l160 -207q-51 -47 -99 -74.5t-96.5 -43t-96.5 -20.5t-97 -5q-90 0 -174 22.5t-147.5 68.5 t-101.5 117.5t-38 168.5zM393 612h287v13q0 61 -43 94t-98 33q-57 0 -101.5 -36t-44.5 -95v-9zM420 1161l174 416l272 -88l-276 -389z" />
<glyph unicode="&#xea;" horiz-adv-x="1064" d="M92 367v262q0 98 36 171.5t97.5 125t141 77t170.5 25.5q96 0 178 -26.5t141 -77t93 -125t34 -172.5v-203h-590v-12q0 -76 46 -111t106 -35q37 0 99.5 10.5t137.5 63.5l160 -207q-51 -47 -99 -74.5t-96.5 -43t-96.5 -20.5t-97 -5q-90 0 -174 22.5t-147.5 68.5 t-101.5 117.5t-38 168.5zM141 1167l301 318h211l303 -318l-114 -100l-295 213q-74 -53 -148.5 -106.5t-148.5 -104.5zM393 612h287v13q0 61 -43 94t-98 33q-57 0 -101.5 -36t-44.5 -95v-9z" />
<glyph unicode="&#xeb;" horiz-adv-x="1064" d="M92 367v262q0 98 36 171.5t97.5 125t141 77t170.5 25.5q96 0 178 -26.5t141 -77t93 -125t34 -172.5v-203h-590v-12q0 -76 46 -111t106 -35q37 0 99.5 10.5t137.5 63.5l160 -207q-51 -47 -99 -74.5t-96.5 -43t-96.5 -20.5t-97 -5q-90 0 -174 22.5t-147.5 68.5 t-101.5 117.5t-38 168.5zM180 1268q0 66 46 111.5t112 45.5t113 -46t47 -111q0 -66 -47.5 -113t-112.5 -47q-66 0 -112 47t-46 113zM393 612h287v13q0 61 -43 94t-98 33q-57 0 -101.5 -36t-44.5 -95v-9zM586 1268q0 66 47 111.5t112 45.5q66 0 112 -46t46 -111 q0 -66 -46 -113t-112 -47t-112.5 47t-46.5 113z" />
<glyph unicode="&#xec;" horiz-adv-x="550" d="M-66 1481l275 94l190 -397l-166 -78zM139 0v1010h303v-1010h-303z" />
<glyph unicode="&#xed;" horiz-adv-x="550" d="M135 1161l174 416l273 -88l-277 -389zM139 0v1010h303v-1010h-303z" />
<glyph unicode="&#xee;" horiz-adv-x="774" d="M-20 1167l301 318h211l303 -318l-115 -100l-295 213q-74 -53 -148.5 -106.5t-148.5 -104.5zM236 0v1010h303v-1010h-303z" />
<glyph unicode="&#xef;" horiz-adv-x="681" d="M-20 1268q0 66 46 111.5t111 45.5q66 0 113 -46t47 -111q0 -66 -47 -113t-113 -47t-111.5 47t-45.5 113zM193 0v1010h303v-1010h-303zM385 1268q0 66 47 111.5t113 45.5t111.5 -46t45.5 -111q0 -66 -46 -113t-111 -47q-66 0 -113 47t-47 113z" />
<glyph unicode="&#xf0;" horiz-adv-x="1089" d="M82 362v191q0 96 39 170t99.5 124t134 75.5t145.5 25.5q66 0 126 -16.5t103 -50.5h4q2 0 4 2q-2 72 -18.5 116.5t-46.5 92.5l-94 -78l-95 102l88 76q-43 29 -95 49.5t-122 30.5l62 235q221 -37 352 -135l88 80l100 -104l-88 -76q43 -57 70 -113.5t42 -121t20.5 -141.5 t5.5 -173v-248q0 -109 -30 -198t-90.5 -152.5t-150.5 -99t-213 -35.5q-92 0 -172 21.5t-140 67.5t-94 116.5t-34 166.5zM383 403q0 -80 49 -112.5t107 -32.5q63 0 108 37t45 117v125q0 80 -49 112.5t-104 32.5q-57 0 -106.5 -40t-49.5 -120v-119z" />
<glyph unicode="&#xf1;" horiz-adv-x="1116" d="M102 0v1016h271l20 -80q102 63 183 78.5t133 15.5q88 0 148.5 -26.5t97 -74.5t53 -114.5t16.5 -148.5v-666h-305v621q0 72 -33 97t-78 25q-41 0 -85 -14t-117 -61v-668h-304zM139 1231q53 113 115 169t156 56q41 -2 79.5 -17.5t73.5 -34t64.5 -33.5t52.5 -15 q35 0 62.5 20.5t68.5 73.5l145 -86q-57 -123 -115.5 -174t-131.5 -51q-43 0 -82 15t-75 32.5t-68.5 33t-59.5 15.5q-35 0 -65.5 -15.5t-77.5 -76.5z" />
<glyph unicode="&#xf2;" horiz-adv-x="1075" d="M82 383v254q0 96 36 170t98.5 123t145 74.5t177.5 25.5q211 0 332.5 -102.5t121.5 -296.5v-248q0 -96 -32.5 -170t-93 -123t-144.5 -74.5t-184 -25.5q-213 0 -335 99t-122 294zM229 1481l275 94l190 -397l-166 -78zM383 403q0 -80 49 -112.5t107 -32.5q55 0 104 33 t49 112v213q0 80 -49 113t-104 33q-57 0 -106.5 -33t-49.5 -113v-213z" />
<glyph unicode="&#xf3;" horiz-adv-x="1075" d="M82 383v254q0 96 36 170t98.5 123t145 74.5t177.5 25.5q211 0 332.5 -102.5t121.5 -296.5v-248q0 -96 -32.5 -170t-93 -123t-144.5 -74.5t-184 -25.5q-213 0 -335 99t-122 294zM383 403q0 -80 49 -112.5t107 -32.5q55 0 104 33t49 112v213q0 80 -49 113t-104 33 q-57 0 -106.5 -33t-49.5 -113v-213zM418 1161l174 416l272 -88l-276 -389z" />
<glyph unicode="&#xf4;" horiz-adv-x="1075" d="M82 383v254q0 96 36 170t98.5 123t145 74.5t177.5 25.5q211 0 332.5 -102.5t121.5 -296.5v-248q0 -96 -32.5 -170t-93 -123t-144.5 -74.5t-184 -25.5q-213 0 -335 99t-122 294zM139 1167l301 318h211l303 -318l-114 -100l-295 213q-74 -53 -148.5 -106.5t-148.5 -104.5z M383 403q0 -80 49 -112.5t107 -32.5q55 0 104 33t49 112v213q0 80 -49 113t-104 33q-57 0 -106.5 -33t-49.5 -113v-213z" />
<glyph unicode="&#xf5;" horiz-adv-x="1075" d="M82 383v254q0 96 36 170t98.5 123t145 74.5t177.5 25.5q211 0 332.5 -102.5t121.5 -296.5v-248q0 -96 -32.5 -170t-93 -123t-144.5 -74.5t-184 -25.5q-213 0 -335 99t-122 294zM121 1231q53 113 114.5 169t155.5 56q41 -2 80 -17.5t74 -34t64.5 -33.5t52.5 -15 q35 0 62.5 20.5t68.5 73.5l145 -86q-57 -123 -115.5 -174t-132.5 -51q-43 0 -82 15t-74.5 32.5t-68.5 33t-59 15.5q-35 0 -66 -15.5t-78 -76.5zM383 403q0 -80 49 -112.5t107 -32.5q55 0 104 33t49 112v213q0 80 -49 113t-104 33q-57 0 -106.5 -33t-49.5 -113v-213z" />
<glyph unicode="&#xf6;" horiz-adv-x="1075" d="M82 383v254q0 96 36 170t98.5 123t145 74.5t177.5 25.5q211 0 332.5 -102.5t121.5 -296.5v-248q0 -96 -32.5 -170t-93 -123t-144.5 -74.5t-184 -25.5q-213 0 -335 99t-122 294zM186 1268q0 66 46.5 111.5t111.5 45.5q66 0 113 -46t47 -111q0 -66 -47 -113t-113 -47 t-112 47t-46 113zM383 403q0 -80 49 -112.5t107 -32.5q55 0 104 33t49 112v213q0 80 -49 113t-104 33q-57 0 -106.5 -33t-49.5 -113v-213zM592 1268q0 66 47 111.5t113 45.5t111.5 -46t45.5 -111q0 -66 -46 -113t-111 -47q-66 0 -113 47t-47 113z" />
<glyph unicode="&#xf7;" d="M37 492v237h1053v-237h-1053zM381 166q0 72 53 121t129 49t129 -49t53 -121q0 -37 -14 -67.5t-38.5 -54.5t-58.5 -37t-71 -13t-70.5 13t-58 37t-39 54.5t-14.5 67.5zM381 1034q0 37 14.5 68t39 54.5t58 36.5t70.5 13t71 -13t58.5 -36.5t38.5 -54.5t14 -68q0 -72 -53 -121 t-129 -49t-129 49.5t-53 120.5z" />
<glyph unicode="&#xf8;" horiz-adv-x="1075" d="M78 45l80 92q-76 94 -76 246v254q0 96 36 170t98.5 123t145 74.5t177.5 25.5q197 0 315 -90l74 86l65 -59l-75 -88q76 -98 75 -248v-248q0 -96 -32.5 -170t-93 -123t-144.5 -74.5t-184 -25.5t-181.5 21.5t-140.5 66.5l-76 -88zM383 397l274 318q-23 25 -54.5 36t-63.5 11 q-57 0 -106.5 -33t-49.5 -113v-213v-6zM416 305q23 -27 55.5 -37t67.5 -10q55 0 104 33t49 112v213v5z" />
<glyph unicode="&#xf9;" horiz-adv-x="1116" d="M92 375v641h305v-621q0 -35 11.5 -58.5t28 -37.5t36 -20.5t35.5 -6.5q41 0 85 14.5t118 61.5v668h303v-1016h-271l-20 80q-51 -33 -97 -51.5t-86 -27.5t-74 -12t-58 -3q-88 0 -148.5 30.5t-97.5 83t-53.5 123t-16.5 152.5zM246 1481l274 94l191 -397l-166 -78z" />
<glyph unicode="&#xfa;" horiz-adv-x="1116" d="M92 375v641h305v-621q0 -35 11.5 -58.5t28 -37.5t36 -20.5t35.5 -6.5q41 0 85 14.5t118 61.5v668h303v-1016h-271l-20 80q-51 -33 -97 -51.5t-86 -27.5t-74 -12t-58 -3q-88 0 -148.5 30.5t-97.5 83t-53.5 123t-16.5 152.5zM406 1161l174 416l272 -88l-277 -389z" />
<glyph unicode="&#xfb;" horiz-adv-x="1116" d="M92 375v641h305v-621q0 -35 11.5 -58.5t28 -37.5t36 -20.5t35.5 -6.5q41 0 85 14.5t118 61.5v668h303v-1016h-271l-20 80q-51 -33 -97 -51.5t-86 -27.5t-74 -12t-58 -3q-88 0 -148.5 30.5t-97.5 83t-53.5 123t-16.5 152.5zM147 1167l302 318h210l304 -318l-115 -100 l-295 213q-74 -53 -148.5 -106.5t-148.5 -104.5z" />
<glyph unicode="&#xfc;" horiz-adv-x="1116" d="M92 375v641h305v-621q0 -35 11.5 -58.5t28 -37.5t36 -20.5t35.5 -6.5q41 0 85 14.5t118 61.5v668h303v-1016h-271l-20 80q-51 -33 -97 -51.5t-86 -27.5t-74 -12t-58 -3q-88 0 -148.5 30.5t-97.5 83t-53.5 123t-16.5 152.5zM193 1268q0 66 46 111.5t111 45.5q66 0 113 -46 t47 -111q0 -66 -47 -113t-113 -47t-111.5 47t-45.5 113zM598 1268q0 66 47 111.5t113 45.5t111.5 -46t45.5 -111q0 -66 -46 -113t-111 -47q-66 0 -113 47t-47 113z" />
<glyph unicode="&#xfd;" horiz-adv-x="1028" d="M20 1016h308l80 -352l73 -304h8l99 310l108 346h310l-521 -1422h-295l158 431l-47 32zM385 1161l174 416l272 -88l-276 -389z" />
<glyph unicode="&#xfe;" horiz-adv-x="1097" d="M102 -406v1815h304v-485q70 45 145.5 71.5t128.5 26.5q336 0 336 -375v-293q0 -82 -21.5 -149.5t-65.5 -116.5t-110.5 -75.5t-156.5 -26.5q-51 0 -124 10t-132 47v-449h-304zM406 324q57 -29 100 -40.5t84 -11.5q51 0 86 29t35 100v217q0 74 -31 99.5t-72 25.5t-99 -21.5 t-103 -49.5v-348z" />
<glyph unicode="&#xff;" horiz-adv-x="1028" d="M20 1016h308l80 -352l73 -304h8l99 310l108 346h310l-521 -1422h-295l158 431l-47 32zM145 1268q0 66 46.5 111.5t111.5 45.5q66 0 113 -46t47 -111q0 -66 -47 -113t-113 -47t-112 47t-46 113zM551 1268q0 66 47 111.5t113 45.5t111.5 -46t45.5 -111q0 -66 -46 -113 t-111 -47q-66 0 -113 47t-47 113z" />
<glyph unicode="&#x152;" horiz-adv-x="1890" d="M113 446v531q0 117 49 201t128 139t177.5 81.5t198.5 26.5q37 0 73.5 -4t73.5 -10h985v-291h-659v-264h563v-289h-563v-278h659v-289h-981q-37 -6 -74.5 -10t-76.5 -4q-111 0 -210.5 28.5t-176 86t-121.5 143.5t-45 202zM438 506q0 -61 20.5 -103.5t53.5 -68t73 -37.5 t81 -12q39 0 75.5 8t71.5 33v753q-33 25 -70.5 36t-76.5 11q-41 0 -81 -12t-73 -37.5t-53.5 -67.5t-20.5 -104v-399z" />
<glyph unicode="&#x153;" horiz-adv-x="1673" d="M86 362v291q0 96 40 167t104.5 117t146.5 67.5t166 21.5q88 0 168 -21.5t141 -66.5q59 41 134 63.5t157 22.5q96 0 178 -26.5t141.5 -77t93 -125t33.5 -172.5v-199h-590v-12q0 -76 46.5 -111t105.5 -35q37 0 99.5 10.5t138.5 63.5l159 -207q-51 -47 -99 -74.5t-96 -43 t-96.5 -20.5t-97.5 -5q-88 0 -168 21.5t-143 64.5q-66 -45 -144.5 -65.5t-160.5 -20.5q-86 0 -168 21.5t-146.5 67.5t-103.5 116.5t-39 166.5zM387 414q0 -80 49 -113t107 -33q55 0 104 33t49 113v188q0 80 -49 113t-104 33q-57 0 -106.5 -33t-49.5 -113v-188zM999 608h287 v13q0 61 -43 94t-98 33q-57 0 -101.5 -36t-44.5 -96v-8z" />
<glyph unicode="&#x178;" horiz-adv-x="1220" d="M20 1411h347l135 -317l102 -234h12l105 240l133 311h346l-426 -854v-557h-325v557zM248 1663q0 66 46 112t112 46t112.5 -46t46.5 -112t-47 -113t-112 -47q-66 0 -112 47t-46 113zM653 1663q0 66 47.5 112t112.5 46q66 0 112 -46t46 -112t-46 -113t-112 -47t-113 47 t-47 113z" />
<glyph unicode="&#x2c6;" horiz-adv-x="1056" d="M115 1167l301 318h211l303 -318l-115 -100l-295 213q-74 -53 -148.5 -106.5t-148.5 -104.5z" />
<glyph unicode="&#x2dc;" horiz-adv-x="1056" d="M133 1231q53 113 114.5 169t155.5 56q41 -2 80 -17.5t74 -34t64.5 -33.5t52.5 -15q35 0 62.5 20.5t68.5 73.5l145 -86q-57 -123 -115.5 -174t-132.5 -51q-43 0 -81.5 15t-74.5 32.5t-69 33t-59 15.5q-35 0 -65.5 -15.5t-78.5 -76.5z" />
<glyph unicode="&#x2000;" horiz-adv-x="969" />
<glyph unicode="&#x2001;" horiz-adv-x="1939" />
<glyph unicode="&#x2002;" horiz-adv-x="969" />
<glyph unicode="&#x2003;" horiz-adv-x="1939" />
<glyph unicode="&#x2004;" horiz-adv-x="646" />
<glyph unicode="&#x2005;" horiz-adv-x="484" />
<glyph unicode="&#x2006;" horiz-adv-x="323" />
<glyph unicode="&#x2007;" horiz-adv-x="323" />
<glyph unicode="&#x2008;" horiz-adv-x="242" />
<glyph unicode="&#x2009;" horiz-adv-x="387" />
<glyph unicode="&#x200a;" horiz-adv-x="107" />
<glyph unicode="&#x2010;" horiz-adv-x="901" d="M96 393v269h709v-269h-709z" />
<glyph unicode="&#x2011;" horiz-adv-x="901" d="M96 393v269h709v-269h-709z" />
<glyph unicode="&#x2012;" horiz-adv-x="901" d="M96 393v269h709v-269h-709z" />
<glyph unicode="&#x2013;" horiz-adv-x="1075" d="M41 449v253h993v-253h-993z" />
<glyph unicode="&#x2014;" horiz-adv-x="2150" d="M41 449v253h2068v-253h-2068z" />
<glyph unicode="&#x2018;" horiz-adv-x="624" d="M121 1112q0 63 19.5 129t56 125t91 110.5t122.5 88.5l104 -144q-55 -41 -90 -95t-43 -99q49 -10 87 -53.5t38 -112.5q0 -39 -15.5 -72t-41 -57.5t-59.5 -37.5t-68 -13q-92 0 -146.5 63.5t-54.5 167.5z" />
<glyph unicode="&#x2019;" horiz-adv-x="624" d="M121 1024q55 41 90 95.5t43 99.5q-49 10 -87 53t-38 112q0 39 15.5 72t41 57.5t59.5 38t68 13.5q92 0 146.5 -63.5t54.5 -168.5q0 -66 -19.5 -130t-56.5 -123.5t-91 -110.5t-122 -88z" />
<glyph unicode="&#x201a;" horiz-adv-x="645" d="M143 -201q55 41 90 95.5t43 99.5q-49 10 -86.5 53t-37.5 113q0 39 15 71.5t40.5 57t59.5 38t69 13.5q92 0 146.5 -63.5t54.5 -167.5q0 -66 -19.5 -130.5t-56.5 -124t-91.5 -110.5t-121.5 -88z" />
<glyph unicode="&#x201c;" horiz-adv-x="1075" d="M121 1112q0 63 19.5 129t56 125t91 110.5t122.5 88.5l104 -144q-55 -41 -90 -95t-43 -99q49 -10 87 -53.5t38 -112.5q0 -39 -15.5 -72t-41 -57.5t-59.5 -37.5t-68 -13q-92 0 -146.5 63.5t-54.5 167.5zM557 1112q0 63 19.5 129t56.5 125t91 110.5t122 88.5l104 -144 q-55 -41 -90 -95t-43 -99q49 -10 87 -53.5t38 -112.5q0 -39 -15.5 -72t-41 -57.5t-59 -37.5t-68.5 -13q-92 0 -146.5 63.5t-54.5 167.5z" />
<glyph unicode="&#x201d;" horiz-adv-x="1075" d="M123 1024q55 41 90 95.5t43 99.5q-49 10 -87 53t-38 112q0 39 15.5 72t41 57.5t59.5 38t68 13.5q92 0 146.5 -63.5t54.5 -168.5q0 -66 -19.5 -130t-56.5 -123.5t-91 -110.5t-122 -88zM559 1024q55 41 90 95.5t43 99.5q-49 10 -87 53t-38 112q0 39 15.5 72t41 57.5 t59.5 38t69 13.5q92 0 146 -63.5t54 -168.5q0 -66 -19.5 -130t-56 -123.5t-91 -110.5t-121.5 -88z" />
<glyph unicode="&#x201e;" horiz-adv-x="1179" d="M143 -201q55 41 90 95.5t43 99.5q-49 10 -86.5 53t-37.5 113q0 39 15 71.5t40.5 57t59.5 38t69 13.5q92 0 146.5 -63.5t54.5 -167.5q0 -66 -19.5 -130.5t-56.5 -124t-91.5 -110.5t-121.5 -88zM657 -201q55 41 90 95.5t44 99.5q-49 10 -87 53t-38 113q0 39 15 71.5t41 57 t59.5 38t68.5 13.5q92 0 146.5 -63.5t54.5 -167.5q0 -66 -19.5 -130.5t-56.5 -124t-91.5 -110.5t-121.5 -88z" />
<glyph unicode="&#x2022;" horiz-adv-x="976" d="M193 596q0 68 25.5 126t69.5 102t102.5 70t125.5 26q68 0 126 -26t102 -70t70 -102t26 -126t-26 -126t-70 -102t-102 -70t-126 -26t-126 26t-102 70t-69.5 102t-25.5 126z" />
<glyph unicode="&#x2026;" horiz-adv-x="1974" d="M152 172q0 39 14 71.5t38.5 57.5t57.5 38t70 13t69.5 -13t58 -38t40 -57.5t14.5 -71.5q0 -76 -48 -131t-130 -55q-78 0 -131 54t-53 132zM827 172q0 39 14.5 71.5t39 57.5t57.5 38t70 13t69.5 -13t58 -38t40 -57.5t14.5 -71.5q0 -76 -48 -131t-130 -55q-78 0 -131.5 54 t-53.5 132zM1462 172q0 39 14.5 71.5t39 57.5t57.5 38t69 13q37 0 70 -13t58.5 -38t40 -57.5t14.5 -71.5q0 -76 -48 -131t-130 -55q-78 0 -131.5 54t-53.5 132z" />
<glyph unicode="&#x202f;" horiz-adv-x="387" />
<glyph unicode="&#x2039;" horiz-adv-x="827" d="M94 459l299 438h287l-293 -438l293 -439h-287z" />
<glyph unicode="&#x203a;" horiz-adv-x="827" d="M94 20l293 439l-293 438h287l299 -438l-299 -439h-287z" />
<glyph unicode="&#x205f;" horiz-adv-x="484" />
<glyph unicode="&#x20ac;" d="M51 483v189h811v-189h-391q4 -55 26.5 -93t56.5 -61.5t73 -33.5t78 -10q61 0 123.5 17t134.5 65l151 -258q-86 -59 -192.5 -91t-223.5 -32q-98 0 -197.5 26.5t-178 82t-128 140t-49.5 201.5v47h-94zM51 743v189h94v37q0 117 48.5 201.5t126 141t175 84t197.5 27.5 q109 0 215.5 -25.5t188.5 -80.5l-146 -262q-61 43 -124.5 57t-123.5 14q-37 0 -75.5 -10t-71.5 -33.5t-55.5 -60.5t-28.5 -90h391v-189h-811z" />
<glyph unicode="&#x2122;" horiz-adv-x="1947" d="M72 1212v197h688v-197h-242v-667h-205v667h-241zM850 545v864h188l150 -281l112 -204h11l114 211l146 274h188v-864h-205v413h-4l-90 -155l-80 -141h-153l-82 145l-84 149h-6v-411h-205z" />
<glyph unicode="&#xe000;" horiz-adv-x="1013" d="M0 0v1014h1014v-1014h-1014z" />
</font>
</defs>
</svg>
